<mxfile host="www.draw.io" modified="2020-01-15T22:01:38.718Z" agent="Mozilla/5.0 (Macintosh; Intel Mac OS X 10_15_1) AppleWebKit/537.36 (KHTML, like Gecko) Chrome/79.0.3945.88 Safari/537.36" etag="ljNv6M0Obft2FOZu2-UU" version="12.5.4" type="github" pages="12">
  <diagram id="SXIOeuUj-WeNT6pQmgWG" name="01 - mockup">
    <mxGraphModel dx="996" dy="478" grid="1" gridSize="10" guides="1" tooltips="1" connect="1" arrows="1" fold="1" page="1" pageScale="1" pageWidth="1920" pageHeight="1200" math="0" shadow="0">
      <root>
        <mxCell id="0"/>
        <mxCell id="1" parent="0"/>
        <mxCell id="3RapWTTPyt1SbRt5Weay-1" value="" style="strokeWidth=1;shadow=0;dashed=0;align=center;html=1;shape=mxgraph.mockup.containers.browserWindow;rSize=0;strokeColor=#666666;strokeColor2=#008cff;strokeColor3=#c4c4c4;mainText=,;recursiveResize=0;" vertex="1" parent="1">
          <mxGeometry x="320" y="140" width="620" height="510" as="geometry"/>
        </mxCell>
        <mxCell id="3RapWTTPyt1SbRt5Weay-2" value="Page 1" style="strokeWidth=1;shadow=0;dashed=0;align=center;html=1;shape=mxgraph.mockup.containers.anchor;fontSize=17;fontColor=#666666;align=left;" vertex="1" parent="3RapWTTPyt1SbRt5Weay-1">
          <mxGeometry x="60" y="12" width="110" height="26" as="geometry"/>
        </mxCell>
        <mxCell id="3RapWTTPyt1SbRt5Weay-3" value="localhost:4200/elements" style="strokeWidth=1;shadow=0;dashed=0;align=center;html=1;shape=mxgraph.mockup.containers.anchor;rSize=0;fontSize=17;fontColor=#666666;align=left;" vertex="1" parent="3RapWTTPyt1SbRt5Weay-1">
          <mxGeometry x="130" y="60" width="250" height="26" as="geometry"/>
        </mxCell>
        <mxCell id="3RapWTTPyt1SbRt5Weay-4" value="Elements" style="text;html=1;strokeColor=none;fillColor=none;align=center;verticalAlign=middle;whiteSpace=wrap;rounded=0;fontStyle=1" vertex="1" parent="3RapWTTPyt1SbRt5Weay-1">
          <mxGeometry x="20" y="120" width="70" height="20" as="geometry"/>
        </mxCell>
        <mxCell id="3RapWTTPyt1SbRt5Weay-5" value="Collections" style="text;html=1;strokeColor=none;fillColor=none;align=center;verticalAlign=middle;whiteSpace=wrap;rounded=0;fontStyle=0" vertex="1" parent="3RapWTTPyt1SbRt5Weay-1">
          <mxGeometry x="105" y="120" width="70" height="20" as="geometry"/>
        </mxCell>
        <mxCell id="3RapWTTPyt1SbRt5Weay-6" value="Views" style="text;html=1;strokeColor=none;fillColor=none;align=center;verticalAlign=middle;whiteSpace=wrap;rounded=0;fontStyle=0" vertex="1" parent="3RapWTTPyt1SbRt5Weay-1">
          <mxGeometry x="190" y="120" width="70" height="20" as="geometry"/>
        </mxCell>
        <mxCell id="3RapWTTPyt1SbRt5Weay-7" value="" style="endArrow=none;html=1;" edge="1" parent="3RapWTTPyt1SbRt5Weay-1">
          <mxGeometry width="50" height="50" relative="1" as="geometry">
            <mxPoint x="25" y="150" as="sourcePoint"/>
            <mxPoint x="595" y="150" as="targetPoint"/>
          </mxGeometry>
        </mxCell>
        <mxCell id="3RapWTTPyt1SbRt5Weay-8" value="Segment" style="text;html=1;strokeColor=none;fillColor=none;align=center;verticalAlign=middle;whiteSpace=wrap;rounded=0;fontStyle=1;fontSize=18;" vertex="1" parent="3RapWTTPyt1SbRt5Weay-1">
          <mxGeometry x="30" y="180" width="70" height="20" as="geometry"/>
        </mxCell>
        <mxCell id="3RapWTTPyt1SbRt5Weay-9" value="" style="endArrow=none;html=1;" edge="1" parent="3RapWTTPyt1SbRt5Weay-1">
          <mxGeometry width="50" height="50" relative="1" as="geometry">
            <mxPoint x="25" y="210" as="sourcePoint"/>
            <mxPoint x="200" y="210" as="targetPoint"/>
          </mxGeometry>
        </mxCell>
        <mxCell id="3RapWTTPyt1SbRt5Weay-10" value="" style="rounded=0;whiteSpace=wrap;html=1;fontSize=18;" vertex="1" parent="3RapWTTPyt1SbRt5Weay-1">
          <mxGeometry x="50" y="220" width="530" height="50" as="geometry"/>
        </mxCell>
        <mxCell id="3RapWTTPyt1SbRt5Weay-11" value="This is an example of a segment component" style="text;html=1;strokeColor=none;fillColor=none;align=left;verticalAlign=middle;whiteSpace=wrap;rounded=0;fontSize=18;" vertex="1" parent="3RapWTTPyt1SbRt5Weay-1">
          <mxGeometry x="65" y="235" width="395" height="20" as="geometry"/>
        </mxCell>
        <mxCell id="3RapWTTPyt1SbRt5Weay-12" value="Placeholder" style="text;html=1;strokeColor=none;fillColor=none;align=center;verticalAlign=middle;whiteSpace=wrap;rounded=0;fontStyle=1;fontSize=18;" vertex="1" parent="3RapWTTPyt1SbRt5Weay-1">
          <mxGeometry x="32.5" y="300" width="87.5" height="20" as="geometry"/>
        </mxCell>
        <mxCell id="3RapWTTPyt1SbRt5Weay-13" value="" style="endArrow=none;html=1;" edge="1" parent="3RapWTTPyt1SbRt5Weay-1">
          <mxGeometry width="50" height="50" relative="1" as="geometry">
            <mxPoint x="27.5" y="330" as="sourcePoint"/>
            <mxPoint x="202.5" y="330" as="targetPoint"/>
          </mxGeometry>
        </mxCell>
        <mxCell id="3RapWTTPyt1SbRt5Weay-14" value="" style="rounded=0;whiteSpace=wrap;html=1;fontSize=18;align=left;fillColor=#f5f5f5;strokeColor=#666666;fontColor=#333333;" vertex="1" parent="3RapWTTPyt1SbRt5Weay-1">
          <mxGeometry x="50" y="340" width="30" height="30" as="geometry"/>
        </mxCell>
        <mxCell id="3RapWTTPyt1SbRt5Weay-15" value="" style="rounded=0;whiteSpace=wrap;html=1;fontSize=18;align=left;fillColor=#f5f5f5;strokeColor=#666666;fontColor=#333333;" vertex="1" parent="3RapWTTPyt1SbRt5Weay-1">
          <mxGeometry x="90" y="340" width="130" height="10" as="geometry"/>
        </mxCell>
        <mxCell id="3RapWTTPyt1SbRt5Weay-16" value="" style="rounded=0;whiteSpace=wrap;html=1;fontSize=18;align=left;fillColor=#f5f5f5;strokeColor=#666666;fontColor=#333333;" vertex="1" parent="3RapWTTPyt1SbRt5Weay-1">
          <mxGeometry x="90" y="360" width="70" height="10" as="geometry"/>
        </mxCell>
        <mxCell id="3RapWTTPyt1SbRt5Weay-17" value="" style="rounded=0;whiteSpace=wrap;html=1;fontSize=18;align=left;fillColor=#f5f5f5;strokeColor=#666666;fontColor=#333333;" vertex="1" parent="3RapWTTPyt1SbRt5Weay-1">
          <mxGeometry x="50" y="380" width="230" height="10" as="geometry"/>
        </mxCell>
        <mxCell id="3RapWTTPyt1SbRt5Weay-18" value="" style="rounded=0;whiteSpace=wrap;html=1;fontSize=18;align=left;fillColor=#f5f5f5;strokeColor=#666666;fontColor=#333333;" vertex="1" parent="3RapWTTPyt1SbRt5Weay-1">
          <mxGeometry x="50" y="400" width="230" height="10" as="geometry"/>
        </mxCell>
        <mxCell id="3RapWTTPyt1SbRt5Weay-19" value="" style="rounded=0;whiteSpace=wrap;html=1;fontSize=18;align=left;fillColor=#f5f5f5;strokeColor=#666666;fontColor=#333333;" vertex="1" parent="3RapWTTPyt1SbRt5Weay-1">
          <mxGeometry x="50" y="420" width="230" height="10" as="geometry"/>
        </mxCell>
        <mxCell id="3RapWTTPyt1SbRt5Weay-20" value="Modules" style="text;html=1;strokeColor=none;fillColor=none;align=center;verticalAlign=middle;whiteSpace=wrap;rounded=0;fontStyle=0" vertex="1" parent="3RapWTTPyt1SbRt5Weay-1">
          <mxGeometry x="275" y="120" width="70" height="20" as="geometry"/>
        </mxCell>
        <mxCell id="3RapWTTPyt1SbRt5Weay-21" value="" style="strokeWidth=1;shadow=0;dashed=0;align=center;html=1;shape=mxgraph.mockup.containers.browserWindow;rSize=0;strokeColor=#666666;strokeColor2=#008cff;strokeColor3=#c4c4c4;mainText=,;recursiveResize=0;" vertex="1" parent="1">
          <mxGeometry x="1000" y="140" width="620" height="510" as="geometry"/>
        </mxCell>
        <mxCell id="3RapWTTPyt1SbRt5Weay-22" value="Page 1" style="strokeWidth=1;shadow=0;dashed=0;align=center;html=1;shape=mxgraph.mockup.containers.anchor;fontSize=17;fontColor=#666666;align=left;" vertex="1" parent="3RapWTTPyt1SbRt5Weay-21">
          <mxGeometry x="60" y="12" width="110" height="26" as="geometry"/>
        </mxCell>
        <mxCell id="3RapWTTPyt1SbRt5Weay-23" value="localhost:4200/collections" style="strokeWidth=1;shadow=0;dashed=0;align=center;html=1;shape=mxgraph.mockup.containers.anchor;rSize=0;fontSize=17;fontColor=#666666;align=left;" vertex="1" parent="3RapWTTPyt1SbRt5Weay-21">
          <mxGeometry x="130" y="60" width="250" height="26" as="geometry"/>
        </mxCell>
        <mxCell id="3RapWTTPyt1SbRt5Weay-24" value="Elements" style="text;html=1;strokeColor=none;fillColor=none;align=center;verticalAlign=middle;whiteSpace=wrap;rounded=0;fontStyle=0" vertex="1" parent="3RapWTTPyt1SbRt5Weay-21">
          <mxGeometry x="21.700000000000045" y="120" width="70" height="20" as="geometry"/>
        </mxCell>
        <mxCell id="3RapWTTPyt1SbRt5Weay-25" value="Collections" style="text;html=1;strokeColor=none;fillColor=none;align=center;verticalAlign=middle;whiteSpace=wrap;rounded=0;fontStyle=1" vertex="1" parent="3RapWTTPyt1SbRt5Weay-21">
          <mxGeometry x="106.70000000000005" y="120" width="70" height="20" as="geometry"/>
        </mxCell>
        <mxCell id="3RapWTTPyt1SbRt5Weay-26" value="Views" style="text;html=1;strokeColor=none;fillColor=none;align=center;verticalAlign=middle;whiteSpace=wrap;rounded=0;fontStyle=0" vertex="1" parent="3RapWTTPyt1SbRt5Weay-21">
          <mxGeometry x="191.70000000000005" y="120" width="70" height="20" as="geometry"/>
        </mxCell>
        <mxCell id="3RapWTTPyt1SbRt5Weay-27" value="" style="endArrow=none;html=1;" edge="1" parent="3RapWTTPyt1SbRt5Weay-21">
          <mxGeometry width="50" height="50" relative="1" as="geometry">
            <mxPoint x="26.700000000000045" y="150" as="sourcePoint"/>
            <mxPoint x="596.7" y="150" as="targetPoint"/>
          </mxGeometry>
        </mxCell>
        <mxCell id="3RapWTTPyt1SbRt5Weay-28" value="Table" style="text;html=1;strokeColor=none;fillColor=none;align=center;verticalAlign=middle;whiteSpace=wrap;rounded=0;fontStyle=1;fontSize=18;" vertex="1" parent="3RapWTTPyt1SbRt5Weay-21">
          <mxGeometry x="21.7" y="170" width="70" height="20" as="geometry"/>
        </mxCell>
        <mxCell id="3RapWTTPyt1SbRt5Weay-29" value="" style="endArrow=none;html=1;" edge="1" parent="3RapWTTPyt1SbRt5Weay-21">
          <mxGeometry width="50" height="50" relative="1" as="geometry">
            <mxPoint x="27.5" y="200" as="sourcePoint"/>
            <mxPoint x="202.5" y="200" as="targetPoint"/>
          </mxGeometry>
        </mxCell>
        <mxCell id="3RapWTTPyt1SbRt5Weay-30" value="&amp;nbsp; Name" style="rounded=0;whiteSpace=wrap;html=1;fontSize=14;align=left;fillColor=#f5f5f5;strokeColor=#666666;fontColor=#333333;" vertex="1" parent="3RapWTTPyt1SbRt5Weay-21">
          <mxGeometry x="50" y="210" width="150" height="25" as="geometry"/>
        </mxCell>
        <mxCell id="3RapWTTPyt1SbRt5Weay-31" value="&amp;nbsp; Age" style="rounded=0;whiteSpace=wrap;html=1;fontSize=14;align=left;fillColor=#f5f5f5;strokeColor=#666666;fontColor=#333333;" vertex="1" parent="3RapWTTPyt1SbRt5Weay-21">
          <mxGeometry x="200" y="210" width="180" height="25" as="geometry"/>
        </mxCell>
        <mxCell id="3RapWTTPyt1SbRt5Weay-32" value="&amp;nbsp; Job" style="rounded=0;whiteSpace=wrap;html=1;fontSize=14;align=left;fillColor=#f5f5f5;strokeColor=#666666;fontColor=#333333;" vertex="1" parent="3RapWTTPyt1SbRt5Weay-21">
          <mxGeometry x="380" y="210" width="180" height="25" as="geometry"/>
        </mxCell>
        <mxCell id="3RapWTTPyt1SbRt5Weay-33" value="James McJoe" style="rounded=0;whiteSpace=wrap;html=1;fontSize=12;align=left;" vertex="1" parent="3RapWTTPyt1SbRt5Weay-21">
          <mxGeometry x="50" y="235" width="150" height="25" as="geometry"/>
        </mxCell>
        <mxCell id="3RapWTTPyt1SbRt5Weay-34" value="30" style="rounded=0;whiteSpace=wrap;html=1;fontSize=12;align=left;" vertex="1" parent="3RapWTTPyt1SbRt5Weay-21">
          <mxGeometry x="200" y="235" width="180" height="25" as="geometry"/>
        </mxCell>
        <mxCell id="3RapWTTPyt1SbRt5Weay-35" value="Designer" style="rounded=0;whiteSpace=wrap;html=1;fontSize=12;align=left;" vertex="1" parent="3RapWTTPyt1SbRt5Weay-21">
          <mxGeometry x="380" y="235" width="180" height="25" as="geometry"/>
        </mxCell>
        <mxCell id="3RapWTTPyt1SbRt5Weay-36" value="Jill Jilly" style="rounded=0;whiteSpace=wrap;html=1;fontSize=12;align=left;" vertex="1" parent="3RapWTTPyt1SbRt5Weay-21">
          <mxGeometry x="50" y="260" width="150" height="25" as="geometry"/>
        </mxCell>
        <mxCell id="3RapWTTPyt1SbRt5Weay-37" value="24" style="rounded=0;whiteSpace=wrap;html=1;fontSize=12;align=left;" vertex="1" parent="3RapWTTPyt1SbRt5Weay-21">
          <mxGeometry x="200" y="260" width="180" height="25" as="geometry"/>
        </mxCell>
        <mxCell id="3RapWTTPyt1SbRt5Weay-38" value="Engineer" style="rounded=0;whiteSpace=wrap;html=1;fontSize=12;align=left;" vertex="1" parent="3RapWTTPyt1SbRt5Weay-21">
          <mxGeometry x="380" y="260" width="180" height="25" as="geometry"/>
        </mxCell>
        <mxCell id="3RapWTTPyt1SbRt5Weay-39" value="Elyse" style="rounded=0;whiteSpace=wrap;html=1;fontSize=12;align=left;" vertex="1" parent="3RapWTTPyt1SbRt5Weay-21">
          <mxGeometry x="50" y="285" width="150" height="25" as="geometry"/>
        </mxCell>
        <mxCell id="3RapWTTPyt1SbRt5Weay-40" value="32" style="rounded=0;whiteSpace=wrap;html=1;fontSize=12;align=left;" vertex="1" parent="3RapWTTPyt1SbRt5Weay-21">
          <mxGeometry x="200" y="285" width="180" height="25" as="geometry"/>
        </mxCell>
        <mxCell id="3RapWTTPyt1SbRt5Weay-41" value="Engineer" style="rounded=0;whiteSpace=wrap;html=1;fontSize=12;align=left;" vertex="1" parent="3RapWTTPyt1SbRt5Weay-21">
          <mxGeometry x="380" y="285" width="180" height="25" as="geometry"/>
        </mxCell>
        <mxCell id="3RapWTTPyt1SbRt5Weay-42" value="Tabs" style="text;html=1;strokeColor=none;fillColor=none;align=center;verticalAlign=middle;whiteSpace=wrap;rounded=0;fontStyle=1;fontSize=18;" vertex="1" parent="3RapWTTPyt1SbRt5Weay-21">
          <mxGeometry x="24.600000000000044" y="330" width="70" height="20" as="geometry"/>
        </mxCell>
        <mxCell id="3RapWTTPyt1SbRt5Weay-43" value="" style="endArrow=none;html=1;" edge="1" parent="3RapWTTPyt1SbRt5Weay-21">
          <mxGeometry width="50" height="50" relative="1" as="geometry">
            <mxPoint x="30.4" y="360" as="sourcePoint"/>
            <mxPoint x="205.4" y="360" as="targetPoint"/>
          </mxGeometry>
        </mxCell>
        <mxCell id="3RapWTTPyt1SbRt5Weay-44" value="Bio" style="rounded=0;whiteSpace=wrap;html=1;fontSize=12;align=left;fillColor=#f5f5f5;strokeColor=#666666;fontColor=#333333;" vertex="1" parent="3RapWTTPyt1SbRt5Weay-21">
          <mxGeometry x="50" y="390" width="120" height="30" as="geometry"/>
        </mxCell>
        <mxCell id="3RapWTTPyt1SbRt5Weay-45" value="Companies" style="rounded=0;whiteSpace=wrap;html=1;fontSize=12;align=left;strokeColor=none;" vertex="1" parent="3RapWTTPyt1SbRt5Weay-21">
          <mxGeometry x="50" y="420" width="120" height="30" as="geometry"/>
        </mxCell>
        <mxCell id="3RapWTTPyt1SbRt5Weay-46" value="Partners" style="rounded=0;whiteSpace=wrap;html=1;fontSize=12;align=left;strokeColor=none;" vertex="1" parent="3RapWTTPyt1SbRt5Weay-21">
          <mxGeometry x="50" y="450" width="120" height="30" as="geometry"/>
        </mxCell>
        <mxCell id="3RapWTTPyt1SbRt5Weay-47" value="" style="rounded=0;whiteSpace=wrap;html=1;fontSize=12;align=left;fillColor=#f5f5f5;strokeColor=#666666;fontColor=#333333;" vertex="1" parent="3RapWTTPyt1SbRt5Weay-21">
          <mxGeometry x="170" y="390" width="330" height="90" as="geometry"/>
        </mxCell>
        <mxCell id="3RapWTTPyt1SbRt5Weay-48" value="Here is a biography of myself.&amp;nbsp; You will learn about how I came to be an engineer!" style="text;html=1;strokeColor=none;fillColor=none;align=left;verticalAlign=middle;whiteSpace=wrap;rounded=0;fontSize=12;" vertex="1" parent="3RapWTTPyt1SbRt5Weay-21">
          <mxGeometry x="176.7" y="400" width="313.3" height="20" as="geometry"/>
        </mxCell>
        <mxCell id="3RapWTTPyt1SbRt5Weay-49" value="Modules" style="text;html=1;strokeColor=none;fillColor=none;align=center;verticalAlign=middle;whiteSpace=wrap;rounded=0;fontStyle=0" vertex="1" parent="3RapWTTPyt1SbRt5Weay-21">
          <mxGeometry x="270" y="120" width="70" height="20" as="geometry"/>
        </mxCell>
        <mxCell id="3RapWTTPyt1SbRt5Weay-50" value="" style="strokeWidth=1;shadow=0;dashed=0;align=center;html=1;shape=mxgraph.mockup.containers.browserWindow;rSize=0;strokeColor=#666666;strokeColor2=#008cff;strokeColor3=#c4c4c4;mainText=,;recursiveResize=0;fontStyle=2" vertex="1" parent="1">
          <mxGeometry x="1670" y="140" width="620" height="510" as="geometry"/>
        </mxCell>
        <mxCell id="3RapWTTPyt1SbRt5Weay-51" value="Page 1" style="strokeWidth=1;shadow=0;dashed=0;align=center;html=1;shape=mxgraph.mockup.containers.anchor;fontSize=17;fontColor=#666666;align=left;" vertex="1" parent="3RapWTTPyt1SbRt5Weay-50">
          <mxGeometry x="60" y="12" width="110" height="26" as="geometry"/>
        </mxCell>
        <mxCell id="3RapWTTPyt1SbRt5Weay-52" value="localhost:4200/views" style="strokeWidth=1;shadow=0;dashed=0;align=center;html=1;shape=mxgraph.mockup.containers.anchor;rSize=0;fontSize=17;fontColor=#666666;align=left;" vertex="1" parent="3RapWTTPyt1SbRt5Weay-50">
          <mxGeometry x="130" y="60" width="250" height="26" as="geometry"/>
        </mxCell>
        <mxCell id="3RapWTTPyt1SbRt5Weay-53" value="Elements" style="text;html=1;strokeColor=none;fillColor=none;align=center;verticalAlign=middle;whiteSpace=wrap;rounded=0;fontStyle=0" vertex="1" parent="3RapWTTPyt1SbRt5Weay-50">
          <mxGeometry x="20.90000000000009" y="120" width="70" height="20" as="geometry"/>
        </mxCell>
        <mxCell id="3RapWTTPyt1SbRt5Weay-54" value="Collections" style="text;html=1;strokeColor=none;fillColor=none;align=center;verticalAlign=middle;whiteSpace=wrap;rounded=0;fontStyle=0" vertex="1" parent="3RapWTTPyt1SbRt5Weay-50">
          <mxGeometry x="105.90000000000009" y="120" width="70" height="20" as="geometry"/>
        </mxCell>
        <mxCell id="3RapWTTPyt1SbRt5Weay-55" value="Views" style="text;html=1;strokeColor=none;fillColor=none;align=center;verticalAlign=middle;whiteSpace=wrap;rounded=0;fontStyle=1" vertex="1" parent="3RapWTTPyt1SbRt5Weay-50">
          <mxGeometry x="190.9000000000001" y="120" width="70" height="20" as="geometry"/>
        </mxCell>
        <mxCell id="3RapWTTPyt1SbRt5Weay-56" value="" style="endArrow=none;html=1;" edge="1" parent="3RapWTTPyt1SbRt5Weay-50">
          <mxGeometry width="50" height="50" relative="1" as="geometry">
            <mxPoint x="25.899999999999864" y="150" as="sourcePoint"/>
            <mxPoint x="595.8999999999996" y="150" as="targetPoint"/>
          </mxGeometry>
        </mxCell>
        <mxCell id="3RapWTTPyt1SbRt5Weay-57" value="Statistics" style="text;html=1;strokeColor=none;fillColor=none;align=center;verticalAlign=middle;whiteSpace=wrap;rounded=0;fontStyle=1;fontSize=18;" vertex="1" parent="3RapWTTPyt1SbRt5Weay-50">
          <mxGeometry x="23.93" y="170" width="96.07" height="20" as="geometry"/>
        </mxCell>
        <mxCell id="3RapWTTPyt1SbRt5Weay-58" value="" style="endArrow=none;html=1;" edge="1" parent="3RapWTTPyt1SbRt5Weay-50">
          <mxGeometry width="50" height="50" relative="1" as="geometry">
            <mxPoint x="29.730000000000018" y="200" as="sourcePoint"/>
            <mxPoint x="204.73000000000002" y="200" as="targetPoint"/>
          </mxGeometry>
        </mxCell>
        <mxCell id="3RapWTTPyt1SbRt5Weay-59" value="22" style="text;html=1;strokeColor=none;fillColor=none;align=center;verticalAlign=middle;whiteSpace=wrap;rounded=0;fontSize=40;" vertex="1" parent="3RapWTTPyt1SbRt5Weay-50">
          <mxGeometry x="40" y="220" width="40" height="20" as="geometry"/>
        </mxCell>
        <mxCell id="3RapWTTPyt1SbRt5Weay-60" value="Favorites" style="text;html=1;strokeColor=none;fillColor=none;align=center;verticalAlign=middle;whiteSpace=wrap;rounded=0;fontSize=12;" vertex="1" parent="3RapWTTPyt1SbRt5Weay-50">
          <mxGeometry x="40" y="250" width="40" height="20" as="geometry"/>
        </mxCell>
        <mxCell id="3RapWTTPyt1SbRt5Weay-61" value="967" style="text;html=1;strokeColor=none;fillColor=none;align=center;verticalAlign=middle;whiteSpace=wrap;rounded=0;fontSize=40;" vertex="1" parent="3RapWTTPyt1SbRt5Weay-50">
          <mxGeometry x="130" y="220" width="40" height="20" as="geometry"/>
        </mxCell>
        <mxCell id="3RapWTTPyt1SbRt5Weay-62" value="Page Views" style="text;html=1;strokeColor=none;fillColor=none;align=center;verticalAlign=middle;whiteSpace=wrap;rounded=0;fontSize=12;" vertex="1" parent="3RapWTTPyt1SbRt5Weay-50">
          <mxGeometry x="115" y="250" width="70" height="20" as="geometry"/>
        </mxCell>
        <mxCell id="3RapWTTPyt1SbRt5Weay-63" value="30" style="text;html=1;strokeColor=none;fillColor=none;align=center;verticalAlign=middle;whiteSpace=wrap;rounded=0;fontSize=40;" vertex="1" parent="3RapWTTPyt1SbRt5Weay-50">
          <mxGeometry x="224.67000000000007" y="220" width="40" height="20" as="geometry"/>
        </mxCell>
        <mxCell id="3RapWTTPyt1SbRt5Weay-64" value="Users" style="text;html=1;strokeColor=none;fillColor=none;align=center;verticalAlign=middle;whiteSpace=wrap;rounded=0;fontSize=12;" vertex="1" parent="3RapWTTPyt1SbRt5Weay-50">
          <mxGeometry x="209.67000000000007" y="250" width="70" height="20" as="geometry"/>
        </mxCell>
        <mxCell id="3RapWTTPyt1SbRt5Weay-65" value="Item List" style="text;html=1;strokeColor=none;fillColor=none;align=center;verticalAlign=middle;whiteSpace=wrap;rounded=0;fontStyle=1;fontSize=18;" vertex="1" parent="3RapWTTPyt1SbRt5Weay-50">
          <mxGeometry x="24.600000000000136" y="300" width="96.07" height="20" as="geometry"/>
        </mxCell>
        <mxCell id="3RapWTTPyt1SbRt5Weay-66" value="" style="endArrow=none;html=1;" edge="1" parent="3RapWTTPyt1SbRt5Weay-50">
          <mxGeometry width="50" height="50" relative="1" as="geometry">
            <mxPoint x="30.40000000000009" y="330" as="sourcePoint"/>
            <mxPoint x="205.4000000000001" y="330" as="targetPoint"/>
          </mxGeometry>
        </mxCell>
        <mxCell id="3RapWTTPyt1SbRt5Weay-67" value="" style="shape=image;html=1;verticalAlign=top;verticalLabelPosition=bottom;labelBackgroundColor=#ffffff;imageAspect=0;aspect=fixed;image=https://cdn2.iconfinder.com/data/icons/freecns-cumulus/16/519587-084_Photo-128.png;fontSize=40;align=left;" vertex="1" parent="3RapWTTPyt1SbRt5Weay-50">
          <mxGeometry x="27" y="350" width="70" height="70" as="geometry"/>
        </mxCell>
        <mxCell id="3RapWTTPyt1SbRt5Weay-68" value="Couch" style="text;html=1;strokeColor=none;fillColor=none;align=left;verticalAlign=middle;whiteSpace=wrap;rounded=0;fontSize=12;fontStyle=1" vertex="1" parent="3RapWTTPyt1SbRt5Weay-50">
          <mxGeometry x="105.9" y="358" width="120" height="20" as="geometry"/>
        </mxCell>
        <mxCell id="3RapWTTPyt1SbRt5Weay-69" value="&lt;i&gt;Description&lt;/i&gt;" style="text;html=1;strokeColor=none;fillColor=none;align=left;verticalAlign=middle;whiteSpace=wrap;rounded=0;fontSize=12;fontStyle=0" vertex="1" parent="3RapWTTPyt1SbRt5Weay-50">
          <mxGeometry x="105.90000000000009" y="379" width="120" height="20" as="geometry"/>
        </mxCell>
        <mxCell id="3RapWTTPyt1SbRt5Weay-70" value="&lt;span&gt;This is a great couch, the kind that you would want in your house!&lt;/span&gt;" style="text;html=1;strokeColor=none;fillColor=none;align=left;verticalAlign=middle;whiteSpace=wrap;rounded=0;fontSize=12;fontStyle=0" vertex="1" parent="3RapWTTPyt1SbRt5Weay-50">
          <mxGeometry x="105.9" y="400" width="244.1" height="20" as="geometry"/>
        </mxCell>
        <mxCell id="3RapWTTPyt1SbRt5Weay-71" value="" style="shape=image;html=1;verticalAlign=top;verticalLabelPosition=bottom;labelBackgroundColor=#ffffff;imageAspect=0;aspect=fixed;image=https://cdn2.iconfinder.com/data/icons/freecns-cumulus/16/519587-084_Photo-128.png;fontSize=40;align=left;" vertex="1" parent="3RapWTTPyt1SbRt5Weay-50">
          <mxGeometry x="27" y="424.66999999999996" width="70" height="70" as="geometry"/>
        </mxCell>
        <mxCell id="3RapWTTPyt1SbRt5Weay-72" value="Dresser" style="text;html=1;strokeColor=none;fillColor=none;align=left;verticalAlign=middle;whiteSpace=wrap;rounded=0;fontSize=12;fontStyle=1" vertex="1" parent="3RapWTTPyt1SbRt5Weay-50">
          <mxGeometry x="105.90000000000009" y="432.66999999999996" width="120" height="20" as="geometry"/>
        </mxCell>
        <mxCell id="3RapWTTPyt1SbRt5Weay-73" value="&lt;i&gt;Description&lt;/i&gt;" style="text;html=1;strokeColor=none;fillColor=none;align=left;verticalAlign=middle;whiteSpace=wrap;rounded=0;fontSize=12;fontStyle=0" vertex="1" parent="3RapWTTPyt1SbRt5Weay-50">
          <mxGeometry x="105.90000000000009" y="453.66999999999996" width="120" height="20" as="geometry"/>
        </mxCell>
        <mxCell id="3RapWTTPyt1SbRt5Weay-74" value="&lt;span&gt;This is a great dresser, the kind that you would want in your house!&lt;/span&gt;" style="text;html=1;strokeColor=none;fillColor=none;align=left;verticalAlign=middle;whiteSpace=wrap;rounded=0;fontSize=12;fontStyle=0" vertex="1" parent="3RapWTTPyt1SbRt5Weay-50">
          <mxGeometry x="105.90000000000009" y="474.66999999999996" width="244.1" height="20" as="geometry"/>
        </mxCell>
        <mxCell id="3RapWTTPyt1SbRt5Weay-75" value="Modules" style="text;html=1;strokeColor=none;fillColor=none;align=center;verticalAlign=middle;whiteSpace=wrap;rounded=0;fontStyle=0" vertex="1" parent="3RapWTTPyt1SbRt5Weay-50">
          <mxGeometry x="275" y="120" width="70" height="20" as="geometry"/>
        </mxCell>
        <mxCell id="3RapWTTPyt1SbRt5Weay-76" value="" style="strokeWidth=1;shadow=0;dashed=0;align=center;html=1;shape=mxgraph.mockup.containers.browserWindow;rSize=0;strokeColor=#666666;strokeColor2=#008cff;strokeColor3=#c4c4c4;mainText=,;recursiveResize=0;fontStyle=2" vertex="1" parent="1">
          <mxGeometry x="2320" y="140" width="620" height="510" as="geometry"/>
        </mxCell>
        <mxCell id="3RapWTTPyt1SbRt5Weay-77" value="Page 1" style="strokeWidth=1;shadow=0;dashed=0;align=center;html=1;shape=mxgraph.mockup.containers.anchor;fontSize=17;fontColor=#666666;align=left;" vertex="1" parent="3RapWTTPyt1SbRt5Weay-76">
          <mxGeometry x="60" y="12" width="110" height="26" as="geometry"/>
        </mxCell>
        <mxCell id="3RapWTTPyt1SbRt5Weay-78" value="localhost:4200/modules" style="strokeWidth=1;shadow=0;dashed=0;align=center;html=1;shape=mxgraph.mockup.containers.anchor;rSize=0;fontSize=17;fontColor=#666666;align=left;" vertex="1" parent="3RapWTTPyt1SbRt5Weay-76">
          <mxGeometry x="130" y="60" width="250" height="26" as="geometry"/>
        </mxCell>
        <mxCell id="3RapWTTPyt1SbRt5Weay-79" value="Elements" style="text;html=1;strokeColor=none;fillColor=none;align=center;verticalAlign=middle;whiteSpace=wrap;rounded=0;fontStyle=0" vertex="1" parent="3RapWTTPyt1SbRt5Weay-76">
          <mxGeometry x="20.90000000000009" y="120" width="70" height="20" as="geometry"/>
        </mxCell>
        <mxCell id="3RapWTTPyt1SbRt5Weay-80" value="Collections" style="text;html=1;strokeColor=none;fillColor=none;align=center;verticalAlign=middle;whiteSpace=wrap;rounded=0;fontStyle=0" vertex="1" parent="3RapWTTPyt1SbRt5Weay-76">
          <mxGeometry x="105.90000000000009" y="120" width="70" height="20" as="geometry"/>
        </mxCell>
        <mxCell id="3RapWTTPyt1SbRt5Weay-81" value="Views" style="text;html=1;strokeColor=none;fillColor=none;align=center;verticalAlign=middle;whiteSpace=wrap;rounded=0;fontStyle=0" vertex="1" parent="3RapWTTPyt1SbRt5Weay-76">
          <mxGeometry x="190.9000000000001" y="120" width="70" height="20" as="geometry"/>
        </mxCell>
        <mxCell id="3RapWTTPyt1SbRt5Weay-82" value="" style="endArrow=none;html=1;" edge="1" parent="3RapWTTPyt1SbRt5Weay-76">
          <mxGeometry width="50" height="50" relative="1" as="geometry">
            <mxPoint x="25.899999999999864" y="150" as="sourcePoint"/>
            <mxPoint x="595.8999999999996" y="150" as="targetPoint"/>
          </mxGeometry>
        </mxCell>
        <mxCell id="3RapWTTPyt1SbRt5Weay-83" value="Modal" style="text;html=1;strokeColor=none;fillColor=none;align=left;verticalAlign=middle;whiteSpace=wrap;rounded=0;fontStyle=1;fontSize=18;" vertex="1" parent="3RapWTTPyt1SbRt5Weay-76">
          <mxGeometry x="33.93" y="170" width="96.07" height="20" as="geometry"/>
        </mxCell>
        <mxCell id="3RapWTTPyt1SbRt5Weay-84" value="" style="endArrow=none;html=1;" edge="1" parent="3RapWTTPyt1SbRt5Weay-76">
          <mxGeometry width="50" height="50" relative="1" as="geometry">
            <mxPoint x="29.730000000000018" y="200" as="sourcePoint"/>
            <mxPoint x="204.73000000000002" y="200" as="targetPoint"/>
          </mxGeometry>
        </mxCell>
        <mxCell id="3RapWTTPyt1SbRt5Weay-85" value="Accordion" style="text;html=1;strokeColor=none;fillColor=none;align=left;verticalAlign=middle;whiteSpace=wrap;rounded=0;fontStyle=1;fontSize=18;" vertex="1" parent="3RapWTTPyt1SbRt5Weay-76">
          <mxGeometry x="33.930000000000135" y="270" width="96.07" height="20" as="geometry"/>
        </mxCell>
        <mxCell id="3RapWTTPyt1SbRt5Weay-86" value="" style="endArrow=none;html=1;" edge="1" parent="3RapWTTPyt1SbRt5Weay-76">
          <mxGeometry width="50" height="50" relative="1" as="geometry">
            <mxPoint x="30.40000000000009" y="300" as="sourcePoint"/>
            <mxPoint x="205.4000000000001" y="300" as="targetPoint"/>
          </mxGeometry>
        </mxCell>
        <mxCell id="3RapWTTPyt1SbRt5Weay-87" value="Modules" style="text;html=1;strokeColor=none;fillColor=none;align=center;verticalAlign=middle;whiteSpace=wrap;rounded=0;fontStyle=1" vertex="1" parent="3RapWTTPyt1SbRt5Weay-76">
          <mxGeometry x="275" y="120" width="70" height="20" as="geometry"/>
        </mxCell>
        <mxCell id="3RapWTTPyt1SbRt5Weay-88" value="Open Modal" style="rounded=1;whiteSpace=wrap;html=1;fontSize=16;align=center;" vertex="1" parent="3RapWTTPyt1SbRt5Weay-76">
          <mxGeometry x="40" y="210" width="120" height="30" as="geometry"/>
        </mxCell>
        <mxCell id="3RapWTTPyt1SbRt5Weay-89" value="&amp;gt; What does orange look like?" style="text;html=1;strokeColor=none;fillColor=none;align=left;verticalAlign=middle;whiteSpace=wrap;rounded=0;fontSize=16;" vertex="1" parent="3RapWTTPyt1SbRt5Weay-76">
          <mxGeometry x="40" y="320" width="260" height="20" as="geometry"/>
        </mxCell>
        <mxCell id="3RapWTTPyt1SbRt5Weay-90" value="&amp;gt; Why is the sky blue?" style="text;html=1;strokeColor=none;fillColor=none;align=left;verticalAlign=middle;whiteSpace=wrap;rounded=0;fontSize=16;" vertex="1" parent="3RapWTTPyt1SbRt5Weay-76">
          <mxGeometry x="40.00000000000009" y="350" width="260" height="20" as="geometry"/>
        </mxCell>
        <mxCell id="3RapWTTPyt1SbRt5Weay-91" value="&amp;gt; What should I have for dinner?" style="text;html=1;strokeColor=none;fillColor=none;align=left;verticalAlign=middle;whiteSpace=wrap;rounded=0;fontSize=16;" vertex="1" parent="3RapWTTPyt1SbRt5Weay-76">
          <mxGeometry x="40" y="380" width="260" height="20" as="geometry"/>
        </mxCell>
      </root>
    </mxGraphModel>
  </diagram>
  <diagram id="fzkNUM_kMQKrJwqqEr65" name="03 - table">
    <mxGraphModel dx="657" dy="359" grid="1" gridSize="10" guides="1" tooltips="1" connect="1" arrows="1" fold="1" page="1" pageScale="1" pageWidth="1920" pageHeight="1200" math="0" shadow="0">
      <root>
        <mxCell id="6Bck2ubDyb045L7wMyk4-0"/>
        <mxCell id="6Bck2ubDyb045L7wMyk4-1" parent="6Bck2ubDyb045L7wMyk4-0"/>
        <mxCell id="yBghl7YIIfd8AOz_1Pp6-0" value="&amp;nbsp; Name" style="rounded=0;whiteSpace=wrap;html=1;fontSize=14;align=left;fillColor=#f5f5f5;strokeColor=#666666;fontColor=#333333;" vertex="1" parent="6Bck2ubDyb045L7wMyk4-1">
          <mxGeometry x="430" y="300" width="150" height="25" as="geometry"/>
        </mxCell>
        <mxCell id="yBghl7YIIfd8AOz_1Pp6-1" value="&amp;nbsp; Age" style="rounded=0;whiteSpace=wrap;html=1;fontSize=14;align=left;fillColor=#f5f5f5;strokeColor=#666666;fontColor=#333333;" vertex="1" parent="6Bck2ubDyb045L7wMyk4-1">
          <mxGeometry x="580" y="300" width="180" height="25" as="geometry"/>
        </mxCell>
        <mxCell id="yBghl7YIIfd8AOz_1Pp6-2" value="&amp;nbsp; Job" style="rounded=0;whiteSpace=wrap;html=1;fontSize=14;align=left;fillColor=#f5f5f5;strokeColor=#666666;fontColor=#333333;" vertex="1" parent="6Bck2ubDyb045L7wMyk4-1">
          <mxGeometry x="760" y="300" width="180" height="25" as="geometry"/>
        </mxCell>
        <mxCell id="yBghl7YIIfd8AOz_1Pp6-3" value="James McJoe" style="rounded=0;whiteSpace=wrap;html=1;fontSize=12;align=left;" vertex="1" parent="6Bck2ubDyb045L7wMyk4-1">
          <mxGeometry x="430" y="325" width="150" height="25" as="geometry"/>
        </mxCell>
        <mxCell id="yBghl7YIIfd8AOz_1Pp6-4" value="30" style="rounded=0;whiteSpace=wrap;html=1;fontSize=12;align=left;" vertex="1" parent="6Bck2ubDyb045L7wMyk4-1">
          <mxGeometry x="580" y="325" width="180" height="25" as="geometry"/>
        </mxCell>
        <mxCell id="yBghl7YIIfd8AOz_1Pp6-5" value="Designer" style="rounded=0;whiteSpace=wrap;html=1;fontSize=12;align=left;" vertex="1" parent="6Bck2ubDyb045L7wMyk4-1">
          <mxGeometry x="760" y="325" width="180" height="25" as="geometry"/>
        </mxCell>
        <mxCell id="yBghl7YIIfd8AOz_1Pp6-6" value="Jill Jilly" style="rounded=0;whiteSpace=wrap;html=1;fontSize=12;align=left;" vertex="1" parent="6Bck2ubDyb045L7wMyk4-1">
          <mxGeometry x="430" y="350" width="150" height="25" as="geometry"/>
        </mxCell>
        <mxCell id="yBghl7YIIfd8AOz_1Pp6-7" value="24" style="rounded=0;whiteSpace=wrap;html=1;fontSize=12;align=left;" vertex="1" parent="6Bck2ubDyb045L7wMyk4-1">
          <mxGeometry x="580" y="350" width="180" height="25" as="geometry"/>
        </mxCell>
        <mxCell id="yBghl7YIIfd8AOz_1Pp6-8" value="Engineer" style="rounded=0;whiteSpace=wrap;html=1;fontSize=12;align=left;" vertex="1" parent="6Bck2ubDyb045L7wMyk4-1">
          <mxGeometry x="760" y="350" width="180" height="25" as="geometry"/>
        </mxCell>
        <mxCell id="yBghl7YIIfd8AOz_1Pp6-9" value="Elyse" style="rounded=0;whiteSpace=wrap;html=1;fontSize=12;align=left;" vertex="1" parent="6Bck2ubDyb045L7wMyk4-1">
          <mxGeometry x="430" y="375" width="150" height="25" as="geometry"/>
        </mxCell>
        <mxCell id="yBghl7YIIfd8AOz_1Pp6-10" value="32" style="rounded=0;whiteSpace=wrap;html=1;fontSize=12;align=left;" vertex="1" parent="6Bck2ubDyb045L7wMyk4-1">
          <mxGeometry x="580" y="375" width="180" height="25" as="geometry"/>
        </mxCell>
        <mxCell id="yBghl7YIIfd8AOz_1Pp6-11" value="Engineer" style="rounded=0;whiteSpace=wrap;html=1;fontSize=12;align=left;" vertex="1" parent="6Bck2ubDyb045L7wMyk4-1">
          <mxGeometry x="760" y="375" width="180" height="25" as="geometry"/>
        </mxCell>
        <mxCell id="JPBFnez0-I1wOjssYMCB-0" value="{ job: &#39;Designer&#39;, age: 30,&lt;br&gt;name: &#39;James&#39;, ,&amp;nbsp; }" style="rounded=0;whiteSpace=wrap;html=1;fontSize=10;fillColor=#dae8fc;strokeColor=#6c8ebf;" vertex="1" parent="6Bck2ubDyb045L7wMyk4-1">
          <mxGeometry x="565" y="120" width="210" height="30" as="geometry"/>
        </mxCell>
        <mxCell id="JPBFnez0-I1wOjssYMCB-1" value="{ name: &#39;Jill&#39;, age: 28, job: &#39;Engineer&#39; }" style="rounded=0;whiteSpace=wrap;html=1;fontSize=10;fillColor=#dae8fc;strokeColor=#6c8ebf;" vertex="1" parent="6Bck2ubDyb045L7wMyk4-1">
          <mxGeometry x="565" y="150" width="210" height="30" as="geometry"/>
        </mxCell>
        <mxCell id="JPBFnez0-I1wOjssYMCB-3" style="edgeStyle=orthogonalEdgeStyle;rounded=0;orthogonalLoop=1;jettySize=auto;html=1;exitX=0.5;exitY=1;exitDx=0;exitDy=0;fontSize=10;" edge="1" parent="6Bck2ubDyb045L7wMyk4-1" source="JPBFnez0-I1wOjssYMCB-2" target="yBghl7YIIfd8AOz_1Pp6-1">
          <mxGeometry relative="1" as="geometry"/>
        </mxCell>
        <mxCell id="JPBFnez0-I1wOjssYMCB-2" value="{ name: &#39;Elyse&#39;, age: 32, job: &#39;Engineer&#39; }" style="rounded=0;whiteSpace=wrap;html=1;fontSize=10;fillColor=#dae8fc;strokeColor=#6c8ebf;" vertex="1" parent="6Bck2ubDyb045L7wMyk4-1">
          <mxGeometry x="565" y="180" width="210" height="30" as="geometry"/>
        </mxCell>
        <mxCell id="JPBFnez0-I1wOjssYMCB-4" value="" style="shape=curlyBracket;whiteSpace=wrap;html=1;rounded=1;fontSize=10;" vertex="1" parent="6Bck2ubDyb045L7wMyk4-1">
          <mxGeometry x="530" y="120" width="30" height="90" as="geometry"/>
        </mxCell>
        <mxCell id="JPBFnez0-I1wOjssYMCB-5" value="Raw data for the table" style="text;html=1;strokeColor=none;fillColor=none;align=right;verticalAlign=middle;whiteSpace=wrap;rounded=0;fontSize=10;fontStyle=1" vertex="1" parent="6Bck2ubDyb045L7wMyk4-1">
          <mxGeometry x="430" y="155" width="100" height="20" as="geometry"/>
        </mxCell>
      </root>
    </mxGraphModel>
  </diagram>
  <diagram id="YoApQmddCFajXHLrZDGN" name="02 - table">
    <mxGraphModel dx="747" dy="359" grid="1" gridSize="10" guides="1" tooltips="1" connect="1" arrows="1" fold="1" page="1" pageScale="1" pageWidth="1920" pageHeight="1200" math="0" shadow="0">
      <root>
        <mxCell id="MsUH2t43NOqwI96yDXyi-0"/>
        <mxCell id="MsUH2t43NOqwI96yDXyi-1" parent="MsUH2t43NOqwI96yDXyi-0"/>
        <mxCell id="MsUH2t43NOqwI96yDXyi-2" value="Table Component" style="rounded=0;whiteSpace=wrap;html=1;fillColor=#dae8fc;strokeColor=#6c8ebf;fontSize=21;fontStyle=1" vertex="1" parent="MsUH2t43NOqwI96yDXyi-1">
          <mxGeometry x="590" y="400" width="210" height="90" as="geometry"/>
        </mxCell>
        <mxCell id="MsUH2t43NOqwI96yDXyi-3" value="data" style="rounded=0;whiteSpace=wrap;html=1;fontSize=21;fillColor=#d5e8d4;strokeColor=#82b366;" vertex="1" parent="MsUH2t43NOqwI96yDXyi-1">
          <mxGeometry x="470" y="180" width="210" height="30" as="geometry"/>
        </mxCell>
        <mxCell id="MsUH2t43NOqwI96yDXyi-4" value="headers" style="rounded=0;whiteSpace=wrap;html=1;fontSize=21;fillColor=#d5e8d4;strokeColor=#82b366;" vertex="1" parent="MsUH2t43NOqwI96yDXyi-1">
          <mxGeometry x="720" y="180" width="210" height="30" as="geometry"/>
        </mxCell>
        <mxCell id="MsUH2t43NOqwI96yDXyi-5" value="{ name: &#39;James&#39;, age: 30, job: &#39;Designer&#39; }" style="rounded=0;whiteSpace=wrap;html=1;fontSize=10;" vertex="1" parent="MsUH2t43NOqwI96yDXyi-1">
          <mxGeometry x="470" y="210" width="210" height="30" as="geometry"/>
        </mxCell>
        <mxCell id="MsUH2t43NOqwI96yDXyi-6" value="{ name: &#39;Jill&#39;, age: 28, job: &#39;Engineer&#39; }" style="rounded=0;whiteSpace=wrap;html=1;fontSize=10;" vertex="1" parent="MsUH2t43NOqwI96yDXyi-1">
          <mxGeometry x="470" y="240" width="210" height="30" as="geometry"/>
        </mxCell>
        <mxCell id="MsUH2t43NOqwI96yDXyi-11" style="edgeStyle=orthogonalEdgeStyle;rounded=0;orthogonalLoop=1;jettySize=auto;html=1;exitX=0.5;exitY=1;exitDx=0;exitDy=0;entryX=0.25;entryY=0;entryDx=0;entryDy=0;fontSize=10;" edge="1" parent="MsUH2t43NOqwI96yDXyi-1" source="MsUH2t43NOqwI96yDXyi-7" target="MsUH2t43NOqwI96yDXyi-2">
          <mxGeometry relative="1" as="geometry"/>
        </mxCell>
        <mxCell id="MsUH2t43NOqwI96yDXyi-7" value="{ name: &#39;Elyse&#39;, age: 32, job: &#39;Engineer&#39; }" style="rounded=0;whiteSpace=wrap;html=1;fontSize=10;" vertex="1" parent="MsUH2t43NOqwI96yDXyi-1">
          <mxGeometry x="470" y="270" width="210" height="30" as="geometry"/>
        </mxCell>
        <mxCell id="MsUH2t43NOqwI96yDXyi-8" value="{ key: &#39;name&#39;, label: &#39;Name&#39; }" style="rounded=0;whiteSpace=wrap;html=1;fontSize=10;" vertex="1" parent="MsUH2t43NOqwI96yDXyi-1">
          <mxGeometry x="720" y="210" width="210" height="30" as="geometry"/>
        </mxCell>
        <mxCell id="MsUH2t43NOqwI96yDXyi-9" value="{ key: &#39;age&#39;, label: &#39;Age&#39; }" style="rounded=0;whiteSpace=wrap;html=1;fontSize=10;" vertex="1" parent="MsUH2t43NOqwI96yDXyi-1">
          <mxGeometry x="720" y="240" width="210" height="30" as="geometry"/>
        </mxCell>
        <mxCell id="MsUH2t43NOqwI96yDXyi-12" style="edgeStyle=orthogonalEdgeStyle;rounded=0;orthogonalLoop=1;jettySize=auto;html=1;exitX=0.5;exitY=1;exitDx=0;exitDy=0;entryX=0.75;entryY=0;entryDx=0;entryDy=0;fontSize=10;" edge="1" parent="MsUH2t43NOqwI96yDXyi-1" source="MsUH2t43NOqwI96yDXyi-10" target="MsUH2t43NOqwI96yDXyi-2">
          <mxGeometry relative="1" as="geometry"/>
        </mxCell>
        <mxCell id="MsUH2t43NOqwI96yDXyi-10" value="{ key: &#39;job&#39;, label: &#39;Job&#39; }" style="rounded=0;whiteSpace=wrap;html=1;fontSize=10;" vertex="1" parent="MsUH2t43NOqwI96yDXyi-1">
          <mxGeometry x="720" y="270" width="210" height="30" as="geometry"/>
        </mxCell>
      </root>
    </mxGraphModel>
  </diagram>
  <diagram id="F0Z18OwMJMNARvxkIzbY" name="04 - tabs">
    <mxGraphModel dx="996" dy="478" grid="1" gridSize="10" guides="1" tooltips="1" connect="1" arrows="1" fold="1" page="1" pageScale="1" pageWidth="1920" pageHeight="1200" math="0" shadow="0">
      <root>
        <mxCell id="aGtsC1pLDLefEmJRUXs2-0"/>
        <mxCell id="aGtsC1pLDLefEmJRUXs2-1" parent="aGtsC1pLDLefEmJRUXs2-0"/>
        <mxCell id="x2OAPCzF4sHUI69z9Ild-0" value="" style="strokeWidth=1;shadow=0;dashed=0;align=center;html=1;shape=mxgraph.mockup.containers.browserWindow;rSize=0;strokeColor=#666666;strokeColor2=#008cff;strokeColor3=#c4c4c4;mainText=,;recursiveResize=0;" vertex="1" parent="aGtsC1pLDLefEmJRUXs2-1">
          <mxGeometry x="220" y="120" width="610" height="340" as="geometry"/>
        </mxCell>
        <mxCell id="x2OAPCzF4sHUI69z9Ild-1" value="Page 1" style="strokeWidth=1;shadow=0;dashed=0;align=center;html=1;shape=mxgraph.mockup.containers.anchor;fontSize=17;fontColor=#666666;align=left;" vertex="1" parent="x2OAPCzF4sHUI69z9Ild-0">
          <mxGeometry x="60" y="12" width="110" height="26" as="geometry"/>
        </mxCell>
        <mxCell id="x2OAPCzF4sHUI69z9Ild-2" value="&lt;b&gt;localhost:4200/collections&lt;/b&gt;" style="strokeWidth=1;shadow=0;dashed=0;align=center;html=1;shape=mxgraph.mockup.containers.anchor;rSize=0;fontSize=17;fontColor=#666666;align=left;" vertex="1" parent="x2OAPCzF4sHUI69z9Ild-0">
          <mxGeometry x="130" y="60" width="250" height="26" as="geometry"/>
        </mxCell>
        <mxCell id="x2OAPCzF4sHUI69z9Ild-3" value="Elements" style="text;html=1;strokeColor=none;fillColor=none;align=center;verticalAlign=middle;whiteSpace=wrap;rounded=0;fontStyle=0" vertex="1" parent="x2OAPCzF4sHUI69z9Ild-0">
          <mxGeometry x="21.700000000000045" y="120" width="70" height="20" as="geometry"/>
        </mxCell>
        <mxCell id="x2OAPCzF4sHUI69z9Ild-4" value="Collections" style="text;html=1;strokeColor=none;fillColor=none;align=center;verticalAlign=middle;whiteSpace=wrap;rounded=0;fontStyle=1" vertex="1" parent="x2OAPCzF4sHUI69z9Ild-0">
          <mxGeometry x="106.70000000000005" y="120" width="70" height="20" as="geometry"/>
        </mxCell>
        <mxCell id="x2OAPCzF4sHUI69z9Ild-5" value="Views" style="text;html=1;strokeColor=none;fillColor=none;align=center;verticalAlign=middle;whiteSpace=wrap;rounded=0;fontStyle=0" vertex="1" parent="x2OAPCzF4sHUI69z9Ild-0">
          <mxGeometry x="191.70000000000005" y="120" width="70" height="20" as="geometry"/>
        </mxCell>
        <mxCell id="x2OAPCzF4sHUI69z9Ild-6" value="" style="endArrow=none;html=1;" edge="1" parent="x2OAPCzF4sHUI69z9Ild-0">
          <mxGeometry width="50" height="50" relative="1" as="geometry">
            <mxPoint x="26.700000000000045" y="150" as="sourcePoint"/>
            <mxPoint x="596.7" y="150" as="targetPoint"/>
          </mxGeometry>
        </mxCell>
        <mxCell id="x2OAPCzF4sHUI69z9Ild-21" value="Tabs" style="text;html=1;strokeColor=none;fillColor=none;align=center;verticalAlign=middle;whiteSpace=wrap;rounded=0;fontStyle=1;fontSize=18;" vertex="1" parent="x2OAPCzF4sHUI69z9Ild-0">
          <mxGeometry x="17.300000000000043" y="160" width="70" height="20" as="geometry"/>
        </mxCell>
        <mxCell id="x2OAPCzF4sHUI69z9Ild-22" value="" style="endArrow=none;html=1;" edge="1" parent="x2OAPCzF4sHUI69z9Ild-0">
          <mxGeometry width="50" height="50" relative="1" as="geometry">
            <mxPoint x="23.099999999999998" y="190" as="sourcePoint"/>
            <mxPoint x="198.1" y="190" as="targetPoint"/>
          </mxGeometry>
        </mxCell>
        <mxCell id="x2OAPCzF4sHUI69z9Ild-23" value="Bio" style="rounded=0;whiteSpace=wrap;html=1;fontSize=12;align=left;fillColor=#f5f5f5;strokeColor=#666666;fontColor=#333333;" vertex="1" parent="x2OAPCzF4sHUI69z9Ild-0">
          <mxGeometry x="42.7" y="220" width="120" height="30" as="geometry"/>
        </mxCell>
        <mxCell id="x2OAPCzF4sHUI69z9Ild-24" value="Companies" style="rounded=0;whiteSpace=wrap;html=1;fontSize=12;align=left;strokeColor=none;" vertex="1" parent="x2OAPCzF4sHUI69z9Ild-0">
          <mxGeometry x="42.7" y="250" width="120" height="30" as="geometry"/>
        </mxCell>
        <mxCell id="x2OAPCzF4sHUI69z9Ild-25" value="Partners" style="rounded=0;whiteSpace=wrap;html=1;fontSize=12;align=left;strokeColor=none;" vertex="1" parent="x2OAPCzF4sHUI69z9Ild-0">
          <mxGeometry x="42.7" y="280" width="120" height="30" as="geometry"/>
        </mxCell>
        <mxCell id="x2OAPCzF4sHUI69z9Ild-26" value="" style="rounded=0;whiteSpace=wrap;html=1;fontSize=12;align=left;fillColor=#f5f5f5;strokeColor=#666666;fontColor=#333333;" vertex="1" parent="x2OAPCzF4sHUI69z9Ild-0">
          <mxGeometry x="162.7" y="220" width="330" height="90" as="geometry"/>
        </mxCell>
        <mxCell id="x2OAPCzF4sHUI69z9Ild-27" value="Here is a biography of myself.&amp;nbsp; You will learn about how I came to be an engineer!" style="text;html=1;strokeColor=none;fillColor=none;align=left;verticalAlign=middle;whiteSpace=wrap;rounded=0;fontSize=12;" vertex="1" parent="x2OAPCzF4sHUI69z9Ild-0">
          <mxGeometry x="169.39999999999998" y="230" width="313.3" height="20" as="geometry"/>
        </mxCell>
        <mxCell id="x2OAPCzF4sHUI69z9Ild-28" value="Modules" style="text;html=1;strokeColor=none;fillColor=none;align=center;verticalAlign=middle;whiteSpace=wrap;rounded=0;fontStyle=0" vertex="1" parent="x2OAPCzF4sHUI69z9Ild-0">
          <mxGeometry x="270" y="120" width="70" height="20" as="geometry"/>
        </mxCell>
        <mxCell id="x2OAPCzF4sHUI69z9Ild-29" value="" style="strokeWidth=1;shadow=0;dashed=0;align=center;html=1;shape=mxgraph.mockup.containers.browserWindow;rSize=0;strokeColor=#666666;strokeColor2=#008cff;strokeColor3=#c4c4c4;mainText=,;recursiveResize=0;" vertex="1" parent="aGtsC1pLDLefEmJRUXs2-1">
          <mxGeometry x="220" y="490" width="610" height="340" as="geometry"/>
        </mxCell>
        <mxCell id="x2OAPCzF4sHUI69z9Ild-30" value="Page 1" style="strokeWidth=1;shadow=0;dashed=0;align=center;html=1;shape=mxgraph.mockup.containers.anchor;fontSize=17;fontColor=#666666;align=left;" vertex="1" parent="x2OAPCzF4sHUI69z9Ild-29">
          <mxGeometry x="60" y="12" width="110" height="26" as="geometry"/>
        </mxCell>
        <mxCell id="x2OAPCzF4sHUI69z9Ild-31" value="&lt;b&gt;localhost:4200/collections/companies&lt;/b&gt;" style="strokeWidth=1;shadow=0;dashed=0;align=center;html=1;shape=mxgraph.mockup.containers.anchor;rSize=0;fontSize=17;fontColor=#666666;align=left;" vertex="1" parent="x2OAPCzF4sHUI69z9Ild-29">
          <mxGeometry x="130" y="60" width="250" height="26" as="geometry"/>
        </mxCell>
        <mxCell id="x2OAPCzF4sHUI69z9Ild-32" value="Elements" style="text;html=1;strokeColor=none;fillColor=none;align=center;verticalAlign=middle;whiteSpace=wrap;rounded=0;fontStyle=0" vertex="1" parent="x2OAPCzF4sHUI69z9Ild-29">
          <mxGeometry x="21.700000000000045" y="120" width="70" height="20" as="geometry"/>
        </mxCell>
        <mxCell id="x2OAPCzF4sHUI69z9Ild-33" value="Collections" style="text;html=1;strokeColor=none;fillColor=none;align=center;verticalAlign=middle;whiteSpace=wrap;rounded=0;fontStyle=1" vertex="1" parent="x2OAPCzF4sHUI69z9Ild-29">
          <mxGeometry x="106.70000000000005" y="120" width="70" height="20" as="geometry"/>
        </mxCell>
        <mxCell id="x2OAPCzF4sHUI69z9Ild-34" value="Views" style="text;html=1;strokeColor=none;fillColor=none;align=center;verticalAlign=middle;whiteSpace=wrap;rounded=0;fontStyle=0" vertex="1" parent="x2OAPCzF4sHUI69z9Ild-29">
          <mxGeometry x="191.70000000000005" y="120" width="70" height="20" as="geometry"/>
        </mxCell>
        <mxCell id="x2OAPCzF4sHUI69z9Ild-35" value="" style="endArrow=none;html=1;" edge="1" parent="x2OAPCzF4sHUI69z9Ild-29">
          <mxGeometry width="50" height="50" relative="1" as="geometry">
            <mxPoint x="26.700000000000045" y="150" as="sourcePoint"/>
            <mxPoint x="596.7" y="150" as="targetPoint"/>
          </mxGeometry>
        </mxCell>
        <mxCell id="x2OAPCzF4sHUI69z9Ild-36" value="Tabs" style="text;html=1;strokeColor=none;fillColor=none;align=center;verticalAlign=middle;whiteSpace=wrap;rounded=0;fontStyle=1;fontSize=18;" vertex="1" parent="x2OAPCzF4sHUI69z9Ild-29">
          <mxGeometry x="17.300000000000043" y="160" width="70" height="20" as="geometry"/>
        </mxCell>
        <mxCell id="x2OAPCzF4sHUI69z9Ild-37" value="" style="endArrow=none;html=1;" edge="1" parent="x2OAPCzF4sHUI69z9Ild-29">
          <mxGeometry width="50" height="50" relative="1" as="geometry">
            <mxPoint x="23.099999999999998" y="190" as="sourcePoint"/>
            <mxPoint x="198.1" y="190" as="targetPoint"/>
          </mxGeometry>
        </mxCell>
        <mxCell id="x2OAPCzF4sHUI69z9Ild-38" value="Bio" style="rounded=0;whiteSpace=wrap;html=1;fontSize=12;align=left;strokeColor=none;" vertex="1" parent="x2OAPCzF4sHUI69z9Ild-29">
          <mxGeometry x="42.7" y="220" width="120" height="30" as="geometry"/>
        </mxCell>
        <mxCell id="x2OAPCzF4sHUI69z9Ild-39" value="Companies" style="rounded=0;whiteSpace=wrap;html=1;fontSize=12;align=left;strokeColor=#666666;fillColor=#f5f5f5;fontColor=#333333;" vertex="1" parent="x2OAPCzF4sHUI69z9Ild-29">
          <mxGeometry x="42.7" y="250" width="120" height="30" as="geometry"/>
        </mxCell>
        <mxCell id="x2OAPCzF4sHUI69z9Ild-40" value="Partners" style="rounded=0;whiteSpace=wrap;html=1;fontSize=12;align=left;strokeColor=none;" vertex="1" parent="x2OAPCzF4sHUI69z9Ild-29">
          <mxGeometry x="42.7" y="280" width="120" height="30" as="geometry"/>
        </mxCell>
        <mxCell id="x2OAPCzF4sHUI69z9Ild-41" value="" style="rounded=0;whiteSpace=wrap;html=1;fontSize=12;align=left;fillColor=#f5f5f5;strokeColor=#666666;fontColor=#333333;" vertex="1" parent="x2OAPCzF4sHUI69z9Ild-29">
          <mxGeometry x="162.7" y="220" width="330" height="90" as="geometry"/>
        </mxCell>
        <mxCell id="x2OAPCzF4sHUI69z9Ild-42" value="Here is a list of companies we work with" style="text;html=1;strokeColor=none;fillColor=none;align=left;verticalAlign=middle;whiteSpace=wrap;rounded=0;fontSize=12;" vertex="1" parent="x2OAPCzF4sHUI69z9Ild-29">
          <mxGeometry x="169.39999999999998" y="230" width="313.3" height="20" as="geometry"/>
        </mxCell>
        <mxCell id="x2OAPCzF4sHUI69z9Ild-43" value="Modules" style="text;html=1;strokeColor=none;fillColor=none;align=center;verticalAlign=middle;whiteSpace=wrap;rounded=0;fontStyle=0" vertex="1" parent="x2OAPCzF4sHUI69z9Ild-29">
          <mxGeometry x="270" y="120" width="70" height="20" as="geometry"/>
        </mxCell>
        <mxCell id="x2OAPCzF4sHUI69z9Ild-44" value="" style="strokeWidth=1;shadow=0;dashed=0;align=center;html=1;shape=mxgraph.mockup.containers.browserWindow;rSize=0;strokeColor=#666666;strokeColor2=#008cff;strokeColor3=#c4c4c4;mainText=,;recursiveResize=0;" vertex="1" parent="aGtsC1pLDLefEmJRUXs2-1">
          <mxGeometry x="220" y="860" width="610" height="340" as="geometry"/>
        </mxCell>
        <mxCell id="x2OAPCzF4sHUI69z9Ild-45" value="Page 1" style="strokeWidth=1;shadow=0;dashed=0;align=center;html=1;shape=mxgraph.mockup.containers.anchor;fontSize=17;fontColor=#666666;align=left;" vertex="1" parent="x2OAPCzF4sHUI69z9Ild-44">
          <mxGeometry x="60" y="12" width="110" height="26" as="geometry"/>
        </mxCell>
        <mxCell id="x2OAPCzF4sHUI69z9Ild-46" value="&lt;b&gt;localhost:4200/collections/partners&lt;/b&gt;" style="strokeWidth=1;shadow=0;dashed=0;align=center;html=1;shape=mxgraph.mockup.containers.anchor;rSize=0;fontSize=17;fontColor=#666666;align=left;" vertex="1" parent="x2OAPCzF4sHUI69z9Ild-44">
          <mxGeometry x="130" y="60" width="250" height="26" as="geometry"/>
        </mxCell>
        <mxCell id="x2OAPCzF4sHUI69z9Ild-47" value="Elements" style="text;html=1;strokeColor=none;fillColor=none;align=center;verticalAlign=middle;whiteSpace=wrap;rounded=0;fontStyle=0" vertex="1" parent="x2OAPCzF4sHUI69z9Ild-44">
          <mxGeometry x="21.700000000000045" y="120" width="70" height="20" as="geometry"/>
        </mxCell>
        <mxCell id="x2OAPCzF4sHUI69z9Ild-48" value="Collections" style="text;html=1;strokeColor=none;fillColor=none;align=center;verticalAlign=middle;whiteSpace=wrap;rounded=0;fontStyle=1" vertex="1" parent="x2OAPCzF4sHUI69z9Ild-44">
          <mxGeometry x="106.70000000000005" y="120" width="70" height="20" as="geometry"/>
        </mxCell>
        <mxCell id="x2OAPCzF4sHUI69z9Ild-49" value="Views" style="text;html=1;strokeColor=none;fillColor=none;align=center;verticalAlign=middle;whiteSpace=wrap;rounded=0;fontStyle=0" vertex="1" parent="x2OAPCzF4sHUI69z9Ild-44">
          <mxGeometry x="191.70000000000005" y="120" width="70" height="20" as="geometry"/>
        </mxCell>
        <mxCell id="x2OAPCzF4sHUI69z9Ild-50" value="" style="endArrow=none;html=1;" edge="1" parent="x2OAPCzF4sHUI69z9Ild-44">
          <mxGeometry width="50" height="50" relative="1" as="geometry">
            <mxPoint x="26.700000000000045" y="150" as="sourcePoint"/>
            <mxPoint x="596.7" y="150" as="targetPoint"/>
          </mxGeometry>
        </mxCell>
        <mxCell id="x2OAPCzF4sHUI69z9Ild-51" value="Tabs" style="text;html=1;strokeColor=none;fillColor=none;align=center;verticalAlign=middle;whiteSpace=wrap;rounded=0;fontStyle=1;fontSize=18;" vertex="1" parent="x2OAPCzF4sHUI69z9Ild-44">
          <mxGeometry x="17.300000000000043" y="160" width="70" height="20" as="geometry"/>
        </mxCell>
        <mxCell id="x2OAPCzF4sHUI69z9Ild-52" value="" style="endArrow=none;html=1;" edge="1" parent="x2OAPCzF4sHUI69z9Ild-44">
          <mxGeometry width="50" height="50" relative="1" as="geometry">
            <mxPoint x="23.099999999999998" y="190" as="sourcePoint"/>
            <mxPoint x="198.1" y="190" as="targetPoint"/>
          </mxGeometry>
        </mxCell>
        <mxCell id="x2OAPCzF4sHUI69z9Ild-53" value="Bio" style="rounded=0;whiteSpace=wrap;html=1;fontSize=12;align=left;strokeColor=none;" vertex="1" parent="x2OAPCzF4sHUI69z9Ild-44">
          <mxGeometry x="42.7" y="220" width="120" height="30" as="geometry"/>
        </mxCell>
        <mxCell id="x2OAPCzF4sHUI69z9Ild-54" value="Companies" style="rounded=0;whiteSpace=wrap;html=1;fontSize=12;align=left;strokeColor=none;fillColor=none;fontColor=#333333;" vertex="1" parent="x2OAPCzF4sHUI69z9Ild-44">
          <mxGeometry x="42.7" y="250" width="120" height="30" as="geometry"/>
        </mxCell>
        <mxCell id="x2OAPCzF4sHUI69z9Ild-55" value="Partners" style="rounded=0;whiteSpace=wrap;html=1;fontSize=12;align=left;fillColor=#f5f5f5;strokeColor=#666666;fontColor=#333333;" vertex="1" parent="x2OAPCzF4sHUI69z9Ild-44">
          <mxGeometry x="42.7" y="280" width="120" height="30" as="geometry"/>
        </mxCell>
        <mxCell id="x2OAPCzF4sHUI69z9Ild-56" value="" style="rounded=0;whiteSpace=wrap;html=1;fontSize=12;align=left;fillColor=#f5f5f5;strokeColor=#666666;fontColor=#333333;" vertex="1" parent="x2OAPCzF4sHUI69z9Ild-44">
          <mxGeometry x="162.7" y="220" width="330" height="90" as="geometry"/>
        </mxCell>
        <mxCell id="x2OAPCzF4sHUI69z9Ild-57" value="Here is a list of our partners" style="text;html=1;strokeColor=none;fillColor=none;align=left;verticalAlign=middle;whiteSpace=wrap;rounded=0;fontSize=12;" vertex="1" parent="x2OAPCzF4sHUI69z9Ild-44">
          <mxGeometry x="169.39999999999998" y="230" width="313.3" height="20" as="geometry"/>
        </mxCell>
        <mxCell id="x2OAPCzF4sHUI69z9Ild-58" value="Modules" style="text;html=1;strokeColor=none;fillColor=none;align=center;verticalAlign=middle;whiteSpace=wrap;rounded=0;fontStyle=0" vertex="1" parent="x2OAPCzF4sHUI69z9Ild-44">
          <mxGeometry x="270" y="120" width="70" height="20" as="geometry"/>
        </mxCell>
      </root>
    </mxGraphModel>
  </diagram>
  <diagram id="ot7JBz-IvnsqpOtfv1TY" name="05 - comps">
    <mxGraphModel dx="747" dy="359" grid="1" gridSize="10" guides="1" tooltips="1" connect="1" arrows="1" fold="1" page="1" pageScale="1" pageWidth="1920" pageHeight="1200" math="0" shadow="0">
      <root>
        <mxCell id="myPltZuEQ-6YF8dqh8Ut-0"/>
        <mxCell id="myPltZuEQ-6YF8dqh8Ut-1" parent="myPltZuEQ-6YF8dqh8Ut-0"/>
        <mxCell id="-AahXfBhS5TwjbcHckPZ-2" style="edgeStyle=orthogonalEdgeStyle;rounded=0;orthogonalLoop=1;jettySize=auto;html=1;exitX=0.5;exitY=1;exitDx=0;exitDy=0;fontSize=18;" edge="1" parent="myPltZuEQ-6YF8dqh8Ut-1" source="myPltZuEQ-6YF8dqh8Ut-3" target="-AahXfBhS5TwjbcHckPZ-1">
          <mxGeometry relative="1" as="geometry"/>
        </mxCell>
        <mxCell id="myPltZuEQ-6YF8dqh8Ut-3" value="/collections" style="rounded=0;whiteSpace=wrap;html=1;fontSize=18;align=center;fillColor=#dae8fc;strokeColor=#6c8ebf;fontStyle=1" vertex="1" parent="myPltZuEQ-6YF8dqh8Ut-1">
          <mxGeometry x="380" y="250" width="210" height="60" as="geometry"/>
        </mxCell>
        <mxCell id="myPltZuEQ-6YF8dqh8Ut-4" value="/collections/companies" style="rounded=0;whiteSpace=wrap;html=1;fontSize=18;align=center;fillColor=#dae8fc;strokeColor=#6c8ebf;fontStyle=1" vertex="1" parent="myPltZuEQ-6YF8dqh8Ut-1">
          <mxGeometry x="610" y="250" width="210" height="60" as="geometry"/>
        </mxCell>
        <mxCell id="-AahXfBhS5TwjbcHckPZ-0" value="/collections/partners" style="rounded=0;whiteSpace=wrap;html=1;fontSize=18;align=center;fillColor=#dae8fc;strokeColor=#6c8ebf;fontStyle=1" vertex="1" parent="myPltZuEQ-6YF8dqh8Ut-1">
          <mxGeometry x="840" y="250" width="210" height="60" as="geometry"/>
        </mxCell>
        <mxCell id="-AahXfBhS5TwjbcHckPZ-1" value="Biography Component" style="rounded=0;whiteSpace=wrap;html=1;fontSize=18;align=center;" vertex="1" parent="myPltZuEQ-6YF8dqh8Ut-1">
          <mxGeometry x="397.5" y="370" width="175" height="60" as="geometry"/>
        </mxCell>
        <mxCell id="-AahXfBhS5TwjbcHckPZ-3" style="edgeStyle=orthogonalEdgeStyle;rounded=0;orthogonalLoop=1;jettySize=auto;html=1;exitX=0.5;exitY=1;exitDx=0;exitDy=0;fontSize=18;" edge="1" parent="myPltZuEQ-6YF8dqh8Ut-1" target="-AahXfBhS5TwjbcHckPZ-4">
          <mxGeometry relative="1" as="geometry">
            <mxPoint x="715" y="310" as="sourcePoint"/>
          </mxGeometry>
        </mxCell>
        <mxCell id="-AahXfBhS5TwjbcHckPZ-4" value="Companies Component" style="rounded=0;whiteSpace=wrap;html=1;fontSize=18;align=center;" vertex="1" parent="myPltZuEQ-6YF8dqh8Ut-1">
          <mxGeometry x="627.5" y="370" width="175" height="60" as="geometry"/>
        </mxCell>
        <mxCell id="-AahXfBhS5TwjbcHckPZ-5" style="edgeStyle=orthogonalEdgeStyle;rounded=0;orthogonalLoop=1;jettySize=auto;html=1;exitX=0.5;exitY=1;exitDx=0;exitDy=0;fontSize=18;" edge="1" parent="myPltZuEQ-6YF8dqh8Ut-1" target="-AahXfBhS5TwjbcHckPZ-6">
          <mxGeometry relative="1" as="geometry">
            <mxPoint x="945" y="310" as="sourcePoint"/>
          </mxGeometry>
        </mxCell>
        <mxCell id="-AahXfBhS5TwjbcHckPZ-6" value="Partners Component" style="rounded=0;whiteSpace=wrap;html=1;fontSize=18;align=center;" vertex="1" parent="myPltZuEQ-6YF8dqh8Ut-1">
          <mxGeometry x="857.5" y="370" width="175" height="60" as="geometry"/>
        </mxCell>
      </root>
    </mxGraphModel>
  </diagram>
  <diagram id="wC3RNJQkvvIFDwsuO-P8" name="08 - plan">
    <mxGraphModel dx="747" dy="359" grid="1" gridSize="10" guides="1" tooltips="1" connect="1" arrows="1" fold="1" page="1" pageScale="1" pageWidth="1920" pageHeight="1200" math="0" shadow="0">
      <root>
        <mxCell id="EtpL4aJW7k0BCMEijyaQ-0"/>
        <mxCell id="EtpL4aJW7k0BCMEijyaQ-1" parent="EtpL4aJW7k0BCMEijyaQ-0"/>
        <mxCell id="EtpL4aJW7k0BCMEijyaQ-4" style="edgeStyle=orthogonalEdgeStyle;rounded=0;orthogonalLoop=1;jettySize=auto;html=1;exitX=0.5;exitY=1;exitDx=0;exitDy=0;fontSize=18;" edge="1" parent="EtpL4aJW7k0BCMEijyaQ-1" source="EtpL4aJW7k0BCMEijyaQ-2" target="EtpL4aJW7k0BCMEijyaQ-3">
          <mxGeometry relative="1" as="geometry"/>
        </mxCell>
        <mxCell id="EtpL4aJW7k0BCMEijyaQ-2" value="First implement all this stuff in the CollectionsHome Component" style="rounded=0;whiteSpace=wrap;html=1;fontSize=22;align=center;fillColor=#dae8fc;strokeColor=#6c8ebf;" vertex="1" parent="EtpL4aJW7k0BCMEijyaQ-1">
          <mxGeometry x="500" y="230" width="350" height="110" as="geometry"/>
        </mxCell>
        <mxCell id="EtpL4aJW7k0BCMEijyaQ-3" value="Then figure out how to make it reusable and move it into a &#39;tabs&#39; component" style="rounded=0;whiteSpace=wrap;html=1;fontSize=22;align=center;fillColor=#dae8fc;strokeColor=#6c8ebf;" vertex="1" parent="EtpL4aJW7k0BCMEijyaQ-1">
          <mxGeometry x="500" y="390" width="350" height="110" as="geometry"/>
        </mxCell>
      </root>
    </mxGraphModel>
  </diagram>
  <diagram id="KySvUFJi3bYCLWDqmGGk" name="06 - routes">
    <mxGraphModel dx="996" dy="478" grid="1" gridSize="10" guides="1" tooltips="1" connect="1" arrows="1" fold="1" page="1" pageScale="1" pageWidth="1920" pageHeight="1200" math="0" shadow="0">
      <root>
        <mxCell id="btt7X8KqDfQ_9ahbNIwP-0"/>
        <mxCell id="btt7X8KqDfQ_9ahbNIwP-1" parent="btt7X8KqDfQ_9ahbNIwP-0"/>
        <mxCell id="btt7X8KqDfQ_9ahbNIwP-2" value="" style="rounded=0;whiteSpace=wrap;html=1;fontSize=24;align=center;fillColor=#ffe6cc;strokeColor=#d79b00;" vertex="1" parent="btt7X8KqDfQ_9ahbNIwP-1">
          <mxGeometry x="360" y="270" width="340" height="280" as="geometry"/>
        </mxCell>
        <mxCell id="btt7X8KqDfQ_9ahbNIwP-3" value="App Routing Module" style="text;html=1;strokeColor=none;fillColor=none;align=center;verticalAlign=middle;whiteSpace=wrap;rounded=0;fontSize=24;fontStyle=1" vertex="1" parent="btt7X8KqDfQ_9ahbNIwP-1">
          <mxGeometry x="367.18000000000006" y="520" width="325.63" height="20" as="geometry"/>
        </mxCell>
        <mxCell id="btt7X8KqDfQ_9ahbNIwP-4" style="edgeStyle=orthogonalEdgeStyle;rounded=0;orthogonalLoop=1;jettySize=auto;html=1;exitX=1;exitY=0.5;exitDx=0;exitDy=0;fontSize=21;" edge="1" parent="btt7X8KqDfQ_9ahbNIwP-1" source="btt7X8KqDfQ_9ahbNIwP-5" target="btt7X8KqDfQ_9ahbNIwP-6">
          <mxGeometry relative="1" as="geometry"/>
        </mxCell>
        <mxCell id="btt7X8KqDfQ_9ahbNIwP-5" value="&#39;&#39;" style="rounded=0;whiteSpace=wrap;html=1;fontSize=20;align=center;" vertex="1" parent="btt7X8KqDfQ_9ahbNIwP-1">
          <mxGeometry x="374.3699999999999" y="400" width="132.51" height="40" as="geometry"/>
        </mxCell>
        <mxCell id="btt7X8KqDfQ_9ahbNIwP-6" value="HomeComponent" style="rounded=0;whiteSpace=wrap;html=1;fontSize=16;align=center;" vertex="1" parent="btt7X8KqDfQ_9ahbNIwP-1">
          <mxGeometry x="530" y="400" width="160" height="40" as="geometry"/>
        </mxCell>
        <mxCell id="btt7X8KqDfQ_9ahbNIwP-7" style="edgeStyle=orthogonalEdgeStyle;rounded=0;orthogonalLoop=1;jettySize=auto;html=1;exitX=1;exitY=0.5;exitDx=0;exitDy=0;fontSize=21;" edge="1" parent="btt7X8KqDfQ_9ahbNIwP-1" source="btt7X8KqDfQ_9ahbNIwP-8" target="btt7X8KqDfQ_9ahbNIwP-9">
          <mxGeometry relative="1" as="geometry"/>
        </mxCell>
        <mxCell id="btt7X8KqDfQ_9ahbNIwP-8" value="**" style="rounded=0;whiteSpace=wrap;html=1;fontSize=20;align=center;" vertex="1" parent="btt7X8KqDfQ_9ahbNIwP-1">
          <mxGeometry x="374.3699999999999" y="450" width="132.51" height="40" as="geometry"/>
        </mxCell>
        <mxCell id="btt7X8KqDfQ_9ahbNIwP-9" value="NotFoundComponent" style="rounded=0;whiteSpace=wrap;html=1;fontSize=16;align=center;" vertex="1" parent="btt7X8KqDfQ_9ahbNIwP-1">
          <mxGeometry x="530" y="450" width="160" height="40" as="geometry"/>
        </mxCell>
        <mxCell id="btt7X8KqDfQ_9ahbNIwP-10" value="" style="rounded=0;whiteSpace=wrap;html=1;fontSize=24;align=center;fillColor=#ffe6cc;strokeColor=#d79b00;" vertex="1" parent="btt7X8KqDfQ_9ahbNIwP-1">
          <mxGeometry x="800" y="270" width="380" height="190" as="geometry"/>
        </mxCell>
        <mxCell id="btt7X8KqDfQ_9ahbNIwP-11" value="Collections Routing Module" style="text;html=1;strokeColor=none;fillColor=none;align=center;verticalAlign=middle;whiteSpace=wrap;rounded=0;fontSize=24;fontStyle=1" vertex="1" parent="btt7X8KqDfQ_9ahbNIwP-1">
          <mxGeometry x="812" y="430" width="356" height="20" as="geometry"/>
        </mxCell>
        <mxCell id="btt7X8KqDfQ_9ahbNIwP-12" style="edgeStyle=orthogonalEdgeStyle;rounded=0;orthogonalLoop=1;jettySize=auto;html=1;exitX=1;exitY=0.5;exitDx=0;exitDy=0;fontSize=21;" edge="1" parent="btt7X8KqDfQ_9ahbNIwP-1" source="btt7X8KqDfQ_9ahbNIwP-13" target="btt7X8KqDfQ_9ahbNIwP-14">
          <mxGeometry relative="1" as="geometry"/>
        </mxCell>
        <mxCell id="btt7X8KqDfQ_9ahbNIwP-13" value="&#39;&#39;" style="rounded=0;whiteSpace=wrap;html=1;fontSize=20;align=center;" vertex="1" parent="btt7X8KqDfQ_9ahbNIwP-1">
          <mxGeometry x="814.3699999999999" y="280" width="132.51" height="40" as="geometry"/>
        </mxCell>
        <mxCell id="btt7X8KqDfQ_9ahbNIwP-14" value="CollectionsHome Component" style="rounded=0;whiteSpace=wrap;html=1;fontSize=16;align=center;" vertex="1" parent="btt7X8KqDfQ_9ahbNIwP-1">
          <mxGeometry x="1000" y="280" width="160" height="40" as="geometry"/>
        </mxCell>
        <mxCell id="btt7X8KqDfQ_9ahbNIwP-15" style="edgeStyle=orthogonalEdgeStyle;rounded=0;orthogonalLoop=1;jettySize=auto;html=1;exitX=1;exitY=0.5;exitDx=0;exitDy=0;fontSize=21;" edge="1" parent="btt7X8KqDfQ_9ahbNIwP-1" source="btt7X8KqDfQ_9ahbNIwP-16" target="btt7X8KqDfQ_9ahbNIwP-18">
          <mxGeometry relative="1" as="geometry"/>
        </mxCell>
        <mxCell id="btt7X8KqDfQ_9ahbNIwP-16" value="elements" style="rounded=0;whiteSpace=wrap;html=1;fontSize=20;align=center;" vertex="1" parent="btt7X8KqDfQ_9ahbNIwP-1">
          <mxGeometry x="374.3699999999999" y="350" width="132.51" height="40" as="geometry"/>
        </mxCell>
        <mxCell id="btt7X8KqDfQ_9ahbNIwP-18" value="Load ElementsModule" style="rounded=0;whiteSpace=wrap;html=1;fontSize=16;align=center;" vertex="1" parent="btt7X8KqDfQ_9ahbNIwP-1">
          <mxGeometry x="530" y="350" width="160" height="40" as="geometry"/>
        </mxCell>
        <mxCell id="btt7X8KqDfQ_9ahbNIwP-19" style="edgeStyle=orthogonalEdgeStyle;rounded=0;orthogonalLoop=1;jettySize=auto;html=1;exitX=1;exitY=0.5;exitDx=0;exitDy=0;fontSize=21;" edge="1" parent="btt7X8KqDfQ_9ahbNIwP-1" source="btt7X8KqDfQ_9ahbNIwP-20" target="btt7X8KqDfQ_9ahbNIwP-21">
          <mxGeometry relative="1" as="geometry"/>
        </mxCell>
        <mxCell id="btt7X8KqDfQ_9ahbNIwP-20" value="collections" style="rounded=0;whiteSpace=wrap;html=1;fontSize=20;align=center;" vertex="1" parent="btt7X8KqDfQ_9ahbNIwP-1">
          <mxGeometry x="374.3699999999999" y="300" width="132.51" height="40" as="geometry"/>
        </mxCell>
        <mxCell id="btt7X8KqDfQ_9ahbNIwP-21" value="Load CollectionsModule" style="rounded=0;whiteSpace=wrap;html=1;fontSize=16;align=center;" vertex="1" parent="btt7X8KqDfQ_9ahbNIwP-1">
          <mxGeometry x="530" y="300" width="160" height="40" as="geometry"/>
        </mxCell>
      </root>
    </mxGraphModel>
  </diagram>
  <diagram id="9ZQGqBKh3lrHqpC7CfSv" name="07 - child">
    <mxGraphModel dx="747" dy="359" grid="1" gridSize="10" guides="1" tooltips="1" connect="1" arrows="1" fold="1" page="1" pageScale="1" pageWidth="1920" pageHeight="1200" math="0" shadow="0">
      <root>
        <mxCell id="rvGZthggbzxwf8FyQAGy-0"/>
        <mxCell id="rvGZthggbzxwf8FyQAGy-1" parent="rvGZthggbzxwf8FyQAGy-0"/>
        <mxCell id="rvGZthggbzxwf8FyQAGy-4" style="edgeStyle=orthogonalEdgeStyle;rounded=0;orthogonalLoop=1;jettySize=auto;html=1;exitX=0.5;exitY=1;exitDx=0;exitDy=0;fontSize=18;" edge="1" parent="rvGZthggbzxwf8FyQAGy-1" source="rvGZthggbzxwf8FyQAGy-2" target="rvGZthggbzxwf8FyQAGy-3">
          <mxGeometry relative="1" as="geometry"/>
        </mxCell>
        <mxCell id="Mt2PQaxlRUeilCHSpqf5-2" style="edgeStyle=orthogonalEdgeStyle;rounded=0;orthogonalLoop=1;jettySize=auto;html=1;exitX=0.5;exitY=1;exitDx=0;exitDy=0;fontSize=22;" edge="1" parent="rvGZthggbzxwf8FyQAGy-1" source="rvGZthggbzxwf8FyQAGy-2" target="Mt2PQaxlRUeilCHSpqf5-1">
          <mxGeometry relative="1" as="geometry"/>
        </mxCell>
        <mxCell id="rvGZthggbzxwf8FyQAGy-2" value="App Component" style="rounded=0;whiteSpace=wrap;html=1;fontSize=18;align=center;fillColor=#dae8fc;strokeColor=#6c8ebf;fontStyle=1" vertex="1" parent="rvGZthggbzxwf8FyQAGy-1">
          <mxGeometry x="470" y="160" width="240" height="60" as="geometry"/>
        </mxCell>
        <mxCell id="rvGZthggbzxwf8FyQAGy-3" value="CollectionsHome Component" style="rounded=0;whiteSpace=wrap;html=1;fontSize=18;align=center;fillColor=#dae8fc;strokeColor=#6c8ebf;fontStyle=1" vertex="1" parent="rvGZthggbzxwf8FyQAGy-1">
          <mxGeometry x="600" y="300" width="170" height="60" as="geometry"/>
        </mxCell>
        <mxCell id="Mt2PQaxlRUeilCHSpqf5-1" value="ElementsHome Component" style="rounded=0;whiteSpace=wrap;html=1;fontSize=18;align=center;fillColor=#dae8fc;strokeColor=#6c8ebf;fontStyle=1" vertex="1" parent="rvGZthggbzxwf8FyQAGy-1">
          <mxGeometry x="410" y="300" width="170" height="60" as="geometry"/>
        </mxCell>
      </root>
    </mxGraphModel>
  </diagram>
  <diagram name="08 - children" id="RqxjIzEgfRjyxqoYq3Cv">
    <mxGraphModel dx="996" dy="478" grid="1" gridSize="10" guides="1" tooltips="1" connect="1" arrows="1" fold="1" page="1" pageScale="1" pageWidth="1920" pageHeight="1200" math="0" shadow="0">
      <root>
        <mxCell id="6plt6Do-1q4mIMUmZBZY-0"/>
        <mxCell id="6plt6Do-1q4mIMUmZBZY-1" parent="6plt6Do-1q4mIMUmZBZY-0"/>
        <mxCell id="6plt6Do-1q4mIMUmZBZY-2" style="edgeStyle=orthogonalEdgeStyle;rounded=0;orthogonalLoop=1;jettySize=auto;html=1;exitX=0.5;exitY=1;exitDx=0;exitDy=0;fontSize=18;" edge="1" parent="6plt6Do-1q4mIMUmZBZY-1" source="6plt6Do-1q4mIMUmZBZY-4" target="6plt6Do-1q4mIMUmZBZY-5">
          <mxGeometry relative="1" as="geometry"/>
        </mxCell>
        <mxCell id="6plt6Do-1q4mIMUmZBZY-3" style="edgeStyle=orthogonalEdgeStyle;rounded=0;orthogonalLoop=1;jettySize=auto;html=1;exitX=0.5;exitY=1;exitDx=0;exitDy=0;fontSize=22;" edge="1" parent="6plt6Do-1q4mIMUmZBZY-1" source="6plt6Do-1q4mIMUmZBZY-4" target="6plt6Do-1q4mIMUmZBZY-6">
          <mxGeometry relative="1" as="geometry"/>
        </mxCell>
        <mxCell id="6plt6Do-1q4mIMUmZBZY-10" style="edgeStyle=orthogonalEdgeStyle;rounded=0;orthogonalLoop=1;jettySize=auto;html=1;exitX=0.5;exitY=1;exitDx=0;exitDy=0;fontSize=22;" edge="1" parent="6plt6Do-1q4mIMUmZBZY-1" source="6plt6Do-1q4mIMUmZBZY-4" target="6plt6Do-1q4mIMUmZBZY-7">
          <mxGeometry relative="1" as="geometry"/>
        </mxCell>
        <mxCell id="6plt6Do-1q4mIMUmZBZY-11" style="edgeStyle=orthogonalEdgeStyle;rounded=0;orthogonalLoop=1;jettySize=auto;html=1;exitX=0.5;exitY=1;exitDx=0;exitDy=0;fontSize=22;" edge="1" parent="6plt6Do-1q4mIMUmZBZY-1" source="6plt6Do-1q4mIMUmZBZY-4" target="6plt6Do-1q4mIMUmZBZY-8">
          <mxGeometry relative="1" as="geometry"/>
        </mxCell>
        <mxCell id="6plt6Do-1q4mIMUmZBZY-12" style="edgeStyle=orthogonalEdgeStyle;rounded=0;orthogonalLoop=1;jettySize=auto;html=1;exitX=0.5;exitY=1;exitDx=0;exitDy=0;fontSize=22;" edge="1" parent="6plt6Do-1q4mIMUmZBZY-1" source="6plt6Do-1q4mIMUmZBZY-4" target="6plt6Do-1q4mIMUmZBZY-9">
          <mxGeometry relative="1" as="geometry"/>
        </mxCell>
        <mxCell id="6plt6Do-1q4mIMUmZBZY-4" value="App Component" style="rounded=0;whiteSpace=wrap;html=1;fontSize=18;align=center;fillColor=#dae8fc;strokeColor=#6c8ebf;fontStyle=1" vertex="1" parent="6plt6Do-1q4mIMUmZBZY-1">
          <mxGeometry x="745" y="160" width="240" height="60" as="geometry"/>
        </mxCell>
        <mxCell id="6plt6Do-1q4mIMUmZBZY-5" value="CollectionsHome Component" style="rounded=0;whiteSpace=wrap;html=1;fontSize=18;align=center;fillColor=#dae8fc;strokeColor=#6c8ebf;fontStyle=1" vertex="1" parent="6plt6Do-1q4mIMUmZBZY-1">
          <mxGeometry x="600" y="300" width="170" height="60" as="geometry"/>
        </mxCell>
        <mxCell id="6plt6Do-1q4mIMUmZBZY-6" value="ElementsHome Component" style="rounded=0;whiteSpace=wrap;html=1;fontSize=18;align=center;fillColor=#dae8fc;strokeColor=#6c8ebf;fontStyle=1" vertex="1" parent="6plt6Do-1q4mIMUmZBZY-1">
          <mxGeometry x="420" y="300" width="170" height="60" as="geometry"/>
        </mxCell>
        <mxCell id="6plt6Do-1q4mIMUmZBZY-7" value="Biography Component" style="rounded=0;whiteSpace=wrap;html=1;fontSize=18;align=center;fillColor=#dae8fc;strokeColor=#6c8ebf;fontStyle=1" vertex="1" parent="6plt6Do-1q4mIMUmZBZY-1">
          <mxGeometry x="780" y="300" width="170" height="60" as="geometry"/>
        </mxCell>
        <mxCell id="6plt6Do-1q4mIMUmZBZY-8" value="Partners Component" style="rounded=0;whiteSpace=wrap;html=1;fontSize=18;align=center;fillColor=#dae8fc;strokeColor=#6c8ebf;fontStyle=1" vertex="1" parent="6plt6Do-1q4mIMUmZBZY-1">
          <mxGeometry x="960" y="300" width="170" height="60" as="geometry"/>
        </mxCell>
        <mxCell id="6plt6Do-1q4mIMUmZBZY-9" value="Companies Component" style="rounded=0;whiteSpace=wrap;html=1;fontSize=18;align=center;fillColor=#dae8fc;strokeColor=#6c8ebf;fontStyle=1" vertex="1" parent="6plt6Do-1q4mIMUmZBZY-1">
          <mxGeometry x="1140" y="300" width="170" height="60" as="geometry"/>
        </mxCell>
        <mxCell id="6plt6Do-1q4mIMUmZBZY-13" value="Not what we want!&amp;nbsp; We want to show BOTH &#39;ElementsHome&#39; + Biography/Partners/Companies at the same time" style="rounded=0;whiteSpace=wrap;html=1;fontSize=22;align=center;fillColor=#f8cecc;strokeColor=#b85450;fontStyle=0" vertex="1" parent="6plt6Do-1q4mIMUmZBZY-1">
          <mxGeometry x="670" y="460" width="390" height="120" as="geometry"/>
        </mxCell>
      </root>
    </mxGraphModel>
  </diagram>
  <diagram name="10 - children" id="eoMD3K_oylAFAPeuRS7q">
    <mxGraphModel dx="996" dy="478" grid="1" gridSize="10" guides="1" tooltips="1" connect="1" arrows="1" fold="1" page="1" pageScale="1" pageWidth="1920" pageHeight="1200" math="0" shadow="0">
      <root>
        <mxCell id="BKornp94Lmcn-rasgoDK-0"/>
        <mxCell id="BKornp94Lmcn-rasgoDK-1" parent="BKornp94Lmcn-rasgoDK-0"/>
        <mxCell id="BKornp94Lmcn-rasgoDK-2" style="edgeStyle=orthogonalEdgeStyle;rounded=0;orthogonalLoop=1;jettySize=auto;html=1;exitX=0.5;exitY=1;exitDx=0;exitDy=0;fontSize=18;" edge="1" parent="BKornp94Lmcn-rasgoDK-1" source="BKornp94Lmcn-rasgoDK-4" target="BKornp94Lmcn-rasgoDK-5">
          <mxGeometry relative="1" as="geometry"/>
        </mxCell>
        <mxCell id="BKornp94Lmcn-rasgoDK-3" style="edgeStyle=orthogonalEdgeStyle;rounded=0;orthogonalLoop=1;jettySize=auto;html=1;exitX=0.5;exitY=1;exitDx=0;exitDy=0;fontSize=22;" edge="1" parent="BKornp94Lmcn-rasgoDK-1" source="BKornp94Lmcn-rasgoDK-4" target="BKornp94Lmcn-rasgoDK-9">
          <mxGeometry relative="1" as="geometry"/>
        </mxCell>
        <mxCell id="BKornp94Lmcn-rasgoDK-4" value="App Component" style="rounded=0;whiteSpace=wrap;html=1;fontSize=18;align=center;fillColor=#dae8fc;strokeColor=#6c8ebf;fontStyle=1" vertex="1" parent="BKornp94Lmcn-rasgoDK-1">
          <mxGeometry x="480" y="140" width="240" height="60" as="geometry"/>
        </mxCell>
        <mxCell id="BKornp94Lmcn-rasgoDK-5" value="CollectionsHome Component" style="rounded=0;whiteSpace=wrap;html=1;fontSize=18;align=center;fillColor=#dae8fc;strokeColor=#6c8ebf;fontStyle=1" vertex="1" parent="BKornp94Lmcn-rasgoDK-1">
          <mxGeometry x="600" y="300" width="170" height="60" as="geometry"/>
        </mxCell>
        <mxCell id="BKornp94Lmcn-rasgoDK-9" value="ElementsHome Component" style="rounded=0;whiteSpace=wrap;html=1;fontSize=18;align=center;fillColor=#dae8fc;strokeColor=#6c8ebf;fontStyle=1" vertex="1" parent="BKornp94Lmcn-rasgoDK-1">
          <mxGeometry x="420" y="300" width="170" height="60" as="geometry"/>
        </mxCell>
        <mxCell id="BKornp94Lmcn-rasgoDK-10" value="Biography Component" style="rounded=0;whiteSpace=wrap;html=1;fontSize=18;align=center;fillColor=#dae8fc;strokeColor=#6c8ebf;fontStyle=1" vertex="1" parent="BKornp94Lmcn-rasgoDK-1">
          <mxGeometry x="420" y="440" width="170" height="60" as="geometry"/>
        </mxCell>
        <mxCell id="BKornp94Lmcn-rasgoDK-11" value="Partners Component" style="rounded=0;whiteSpace=wrap;html=1;fontSize=18;align=center;fillColor=#dae8fc;strokeColor=#6c8ebf;fontStyle=1" vertex="1" parent="BKornp94Lmcn-rasgoDK-1">
          <mxGeometry x="600" y="440" width="170" height="60" as="geometry"/>
        </mxCell>
        <mxCell id="BKornp94Lmcn-rasgoDK-12" value="Companies Component" style="rounded=0;whiteSpace=wrap;html=1;fontSize=18;align=center;fillColor=#dae8fc;strokeColor=#6c8ebf;fontStyle=1" vertex="1" parent="BKornp94Lmcn-rasgoDK-1">
          <mxGeometry x="780" y="440" width="170" height="60" as="geometry"/>
        </mxCell>
        <mxCell id="BKornp94Lmcn-rasgoDK-23" style="edgeStyle=orthogonalEdgeStyle;rounded=0;orthogonalLoop=1;jettySize=auto;html=1;exitX=0.5;exitY=1;exitDx=0;exitDy=0;fontSize=12;" edge="1" parent="BKornp94Lmcn-rasgoDK-1" source="BKornp94Lmcn-rasgoDK-20" target="BKornp94Lmcn-rasgoDK-10">
          <mxGeometry relative="1" as="geometry"/>
        </mxCell>
        <mxCell id="BKornp94Lmcn-rasgoDK-24" style="edgeStyle=orthogonalEdgeStyle;rounded=0;orthogonalLoop=1;jettySize=auto;html=1;exitX=0.5;exitY=1;exitDx=0;exitDy=0;entryX=0.5;entryY=0;entryDx=0;entryDy=0;fontSize=12;" edge="1" parent="BKornp94Lmcn-rasgoDK-1" source="BKornp94Lmcn-rasgoDK-20" target="BKornp94Lmcn-rasgoDK-11">
          <mxGeometry relative="1" as="geometry"/>
        </mxCell>
        <mxCell id="BKornp94Lmcn-rasgoDK-25" style="edgeStyle=orthogonalEdgeStyle;rounded=0;orthogonalLoop=1;jettySize=auto;html=1;exitX=0.5;exitY=1;exitDx=0;exitDy=0;fontSize=12;" edge="1" parent="BKornp94Lmcn-rasgoDK-1" source="BKornp94Lmcn-rasgoDK-20" target="BKornp94Lmcn-rasgoDK-12">
          <mxGeometry relative="1" as="geometry"/>
        </mxCell>
        <mxCell id="BKornp94Lmcn-rasgoDK-20" value="&amp;lt;router-outlet&amp;gt;&amp;lt;/router-outlet&amp;gt;" style="rounded=0;whiteSpace=wrap;html=1;fontSize=12;align=center;fillColor=#f8cecc;strokeColor=#b85450;" vertex="1" parent="BKornp94Lmcn-rasgoDK-1">
          <mxGeometry x="600" y="360" width="170" height="30" as="geometry"/>
        </mxCell>
        <mxCell id="BKornp94Lmcn-rasgoDK-21" value="&amp;lt;router-outlet&amp;gt;&amp;lt;/router-outlet&amp;gt;" style="rounded=0;whiteSpace=wrap;html=1;fontSize=12;align=center;fillColor=#f8cecc;strokeColor=#b85450;" vertex="1" parent="BKornp94Lmcn-rasgoDK-1">
          <mxGeometry x="515" y="200" width="170" height="30" as="geometry"/>
        </mxCell>
      </root>
    </mxGraphModel>
  </diagram>
  <diagram name="11 - router" id="OVHaalvj0ABmNZRJPjx0">
    <mxGraphModel dx="996" dy="478" grid="1" gridSize="10" guides="1" tooltips="1" connect="1" arrows="1" fold="1" page="1" pageScale="1" pageWidth="1920" pageHeight="1200" math="0" shadow="0">
      <root>
        <mxCell id="JK69jArG_Ae7fF3zpYkH-0"/>
        <mxCell id="JK69jArG_Ae7fF3zpYkH-1" parent="JK69jArG_Ae7fF3zpYkH-0"/>
        <mxCell id="JK69jArG_Ae7fF3zpYkH-4" value="AppRoutingModule" style="rounded=0;whiteSpace=wrap;html=1;fontSize=18;align=center;fillColor=#dae8fc;strokeColor=#6c8ebf;fontStyle=1" vertex="1" parent="JK69jArG_Ae7fF3zpYkH-1">
          <mxGeometry x="495" y="180" width="240" height="40" as="geometry"/>
        </mxCell>
        <mxCell id="JK69jArG_Ae7fF3zpYkH-5" value="CollectionsRouting Module" style="rounded=0;whiteSpace=wrap;html=1;fontSize=18;align=center;fillColor=#dae8fc;strokeColor=#6c8ebf;fontStyle=1" vertex="1" parent="JK69jArG_Ae7fF3zpYkH-1">
          <mxGeometry x="740" y="300" width="170" height="60" as="geometry"/>
        </mxCell>
        <mxCell id="JK69jArG_Ae7fF3zpYkH-6" value="ElementsRouting Module" style="rounded=0;whiteSpace=wrap;html=1;fontSize=18;align=center;fillColor=#dae8fc;strokeColor=#6c8ebf;fontStyle=1" vertex="1" parent="JK69jArG_Ae7fF3zpYkH-1">
          <mxGeometry x="350" y="300" width="170" height="60" as="geometry"/>
        </mxCell>
        <mxCell id="JK69jArG_Ae7fF3zpYkH-17" style="edgeStyle=orthogonalEdgeStyle;rounded=0;orthogonalLoop=1;jettySize=auto;html=1;exitX=0.5;exitY=1;exitDx=0;exitDy=0;fontSize=15;" edge="1" parent="JK69jArG_Ae7fF3zpYkH-1" source="JK69jArG_Ae7fF3zpYkH-15" target="JK69jArG_Ae7fF3zpYkH-6">
          <mxGeometry relative="1" as="geometry"/>
        </mxCell>
        <mxCell id="JK69jArG_Ae7fF3zpYkH-15" value="&#39;elements&#39;" style="rounded=0;whiteSpace=wrap;html=1;fontSize=15;align=center;fontStyle=1" vertex="1" parent="JK69jArG_Ae7fF3zpYkH-1">
          <mxGeometry x="495" y="220" width="120" height="40" as="geometry"/>
        </mxCell>
        <mxCell id="JK69jArG_Ae7fF3zpYkH-18" style="edgeStyle=orthogonalEdgeStyle;rounded=0;orthogonalLoop=1;jettySize=auto;html=1;exitX=0.5;exitY=1;exitDx=0;exitDy=0;fontSize=15;" edge="1" parent="JK69jArG_Ae7fF3zpYkH-1" source="JK69jArG_Ae7fF3zpYkH-16" target="JK69jArG_Ae7fF3zpYkH-5">
          <mxGeometry relative="1" as="geometry"/>
        </mxCell>
        <mxCell id="JK69jArG_Ae7fF3zpYkH-16" value="&#39;collections&#39;" style="rounded=0;whiteSpace=wrap;html=1;fontSize=15;align=center;fontStyle=1" vertex="1" parent="JK69jArG_Ae7fF3zpYkH-1">
          <mxGeometry x="615" y="220" width="120" height="40" as="geometry"/>
        </mxCell>
        <mxCell id="JK69jArG_Ae7fF3zpYkH-23" style="edgeStyle=orthogonalEdgeStyle;rounded=0;orthogonalLoop=1;jettySize=auto;html=1;exitX=0.5;exitY=1;exitDx=0;exitDy=0;fontSize=15;" edge="1" parent="JK69jArG_Ae7fF3zpYkH-1" source="JK69jArG_Ae7fF3zpYkH-21" target="JK69jArG_Ae7fF3zpYkH-22">
          <mxGeometry relative="1" as="geometry"/>
        </mxCell>
        <mxCell id="JK69jArG_Ae7fF3zpYkH-21" value="&#39;&#39;" style="rounded=0;whiteSpace=wrap;html=1;fontSize=15;align=center;fontStyle=1" vertex="1" parent="JK69jArG_Ae7fF3zpYkH-1">
          <mxGeometry x="350" y="360" width="170" height="40" as="geometry"/>
        </mxCell>
        <mxCell id="JK69jArG_Ae7fF3zpYkH-22" value="ElementsHome Component" style="rounded=0;whiteSpace=wrap;html=1;fontSize=18;align=center;fillColor=#ffe6cc;strokeColor=#d79b00;fontStyle=1" vertex="1" parent="JK69jArG_Ae7fF3zpYkH-1">
          <mxGeometry x="350" y="450" width="170" height="60" as="geometry"/>
        </mxCell>
        <mxCell id="PQ3FGTR18dewF92M7tQk-0" style="edgeStyle=orthogonalEdgeStyle;rounded=0;orthogonalLoop=1;jettySize=auto;html=1;exitX=0.5;exitY=1;exitDx=0;exitDy=0;fontSize=15;" edge="1" parent="JK69jArG_Ae7fF3zpYkH-1" source="JK69jArG_Ae7fF3zpYkH-24" target="JK69jArG_Ae7fF3zpYkH-25">
          <mxGeometry relative="1" as="geometry"/>
        </mxCell>
        <mxCell id="JK69jArG_Ae7fF3zpYkH-24" value="&#39;&#39;" style="rounded=0;whiteSpace=wrap;html=1;fontSize=15;align=center;fontStyle=1" vertex="1" parent="JK69jArG_Ae7fF3zpYkH-1">
          <mxGeometry x="615" y="510" width="140" height="40" as="geometry"/>
        </mxCell>
        <mxCell id="JK69jArG_Ae7fF3zpYkH-25" value="Biography Component" style="rounded=0;whiteSpace=wrap;html=1;fontSize=18;align=center;fillColor=#ffe6cc;strokeColor=#d79b00;fontStyle=1" vertex="1" parent="JK69jArG_Ae7fF3zpYkH-1">
          <mxGeometry x="565" y="600" width="170" height="60" as="geometry"/>
        </mxCell>
        <mxCell id="JK69jArG_Ae7fF3zpYkH-26" value="Companies Component" style="rounded=0;whiteSpace=wrap;html=1;fontSize=18;align=center;fillColor=#ffe6cc;strokeColor=#d79b00;fontStyle=1" vertex="1" parent="JK69jArG_Ae7fF3zpYkH-1">
          <mxGeometry x="740" y="600" width="170" height="60" as="geometry"/>
        </mxCell>
        <mxCell id="JK69jArG_Ae7fF3zpYkH-27" value="Partners Component" style="rounded=0;whiteSpace=wrap;html=1;fontSize=18;align=center;fillColor=#ffe6cc;strokeColor=#d79b00;fontStyle=1" vertex="1" parent="JK69jArG_Ae7fF3zpYkH-1">
          <mxGeometry x="915" y="600" width="170" height="60" as="geometry"/>
        </mxCell>
        <mxCell id="PQ3FGTR18dewF92M7tQk-1" style="edgeStyle=orthogonalEdgeStyle;rounded=0;orthogonalLoop=1;jettySize=auto;html=1;exitX=0.5;exitY=1;exitDx=0;exitDy=0;fontSize=15;" edge="1" parent="JK69jArG_Ae7fF3zpYkH-1" source="JK69jArG_Ae7fF3zpYkH-30" target="JK69jArG_Ae7fF3zpYkH-26">
          <mxGeometry relative="1" as="geometry"/>
        </mxCell>
        <mxCell id="JK69jArG_Ae7fF3zpYkH-30" value="&#39;companies&#39;" style="rounded=0;whiteSpace=wrap;html=1;fontSize=15;align=center;fontStyle=1" vertex="1" parent="JK69jArG_Ae7fF3zpYkH-1">
          <mxGeometry x="755" y="510" width="140" height="40" as="geometry"/>
        </mxCell>
        <mxCell id="PQ3FGTR18dewF92M7tQk-2" style="edgeStyle=orthogonalEdgeStyle;rounded=0;orthogonalLoop=1;jettySize=auto;html=1;exitX=0.5;exitY=1;exitDx=0;exitDy=0;fontSize=15;" edge="1" parent="JK69jArG_Ae7fF3zpYkH-1" source="JK69jArG_Ae7fF3zpYkH-31" target="JK69jArG_Ae7fF3zpYkH-27">
          <mxGeometry relative="1" as="geometry"/>
        </mxCell>
        <mxCell id="JK69jArG_Ae7fF3zpYkH-31" value="&#39;partners&#39;" style="rounded=0;whiteSpace=wrap;html=1;fontSize=15;align=center;fontStyle=1" vertex="1" parent="JK69jArG_Ae7fF3zpYkH-1">
          <mxGeometry x="895" y="510" width="140" height="40" as="geometry"/>
        </mxCell>
        <mxCell id="PQ3FGTR18dewF92M7tQk-5" style="edgeStyle=orthogonalEdgeStyle;rounded=0;orthogonalLoop=1;jettySize=auto;html=1;exitX=0.5;exitY=1;exitDx=0;exitDy=0;fontSize=15;" edge="1" parent="JK69jArG_Ae7fF3zpYkH-1" source="PQ3FGTR18dewF92M7tQk-3" target="PQ3FGTR18dewF92M7tQk-4">
          <mxGeometry relative="1" as="geometry"/>
        </mxCell>
        <mxCell id="PQ3FGTR18dewF92M7tQk-3" value="&#39;&#39;" style="rounded=0;whiteSpace=wrap;html=1;fontSize=15;align=center;fontStyle=1" vertex="1" parent="JK69jArG_Ae7fF3zpYkH-1">
          <mxGeometry x="740" y="360" width="170" height="40" as="geometry"/>
        </mxCell>
        <mxCell id="PQ3FGTR18dewF92M7tQk-6" style="edgeStyle=orthogonalEdgeStyle;rounded=0;orthogonalLoop=1;jettySize=auto;html=1;exitX=0.5;exitY=1;exitDx=0;exitDy=0;fontSize=15;" edge="1" parent="JK69jArG_Ae7fF3zpYkH-1" source="PQ3FGTR18dewF92M7tQk-4" target="JK69jArG_Ae7fF3zpYkH-24">
          <mxGeometry relative="1" as="geometry"/>
        </mxCell>
        <mxCell id="PQ3FGTR18dewF92M7tQk-7" style="edgeStyle=orthogonalEdgeStyle;rounded=0;orthogonalLoop=1;jettySize=auto;html=1;exitX=0.5;exitY=1;exitDx=0;exitDy=0;entryX=0.5;entryY=0;entryDx=0;entryDy=0;fontSize=15;" edge="1" parent="JK69jArG_Ae7fF3zpYkH-1" source="PQ3FGTR18dewF92M7tQk-4" target="JK69jArG_Ae7fF3zpYkH-30">
          <mxGeometry relative="1" as="geometry"/>
        </mxCell>
        <mxCell id="PQ3FGTR18dewF92M7tQk-8" style="edgeStyle=orthogonalEdgeStyle;rounded=0;orthogonalLoop=1;jettySize=auto;html=1;exitX=0.5;exitY=1;exitDx=0;exitDy=0;fontSize=15;" edge="1" parent="JK69jArG_Ae7fF3zpYkH-1" source="PQ3FGTR18dewF92M7tQk-4" target="JK69jArG_Ae7fF3zpYkH-31">
          <mxGeometry relative="1" as="geometry"/>
        </mxCell>
        <mxCell id="PQ3FGTR18dewF92M7tQk-4" value="Collections Component" style="rounded=0;whiteSpace=wrap;html=1;fontSize=18;align=center;fillColor=#ffe6cc;strokeColor=#d79b00;fontStyle=1" vertex="1" parent="JK69jArG_Ae7fF3zpYkH-1">
          <mxGeometry x="740" y="420" width="170" height="50" as="geometry"/>
        </mxCell>
      </root>
    </mxGraphModel>
  </diagram>
  <diagram name="09 - chidlren" id="rTOStjxO6rLlQytlQEJq">
    <mxGraphModel dx="747" dy="359" grid="1" gridSize="10" guides="1" tooltips="1" connect="1" arrows="1" fold="1" page="1" pageScale="1" pageWidth="1920" pageHeight="1200" math="0" shadow="0">
      <root>
        <mxCell id="4999PPlqmTYhQL-06_YI-0"/>
        <mxCell id="4999PPlqmTYhQL-06_YI-1" parent="4999PPlqmTYhQL-06_YI-0"/>
        <mxCell id="4999PPlqmTYhQL-06_YI-2" style="edgeStyle=orthogonalEdgeStyle;rounded=0;orthogonalLoop=1;jettySize=auto;html=1;exitX=0.5;exitY=1;exitDx=0;exitDy=0;fontSize=18;" edge="1" parent="4999PPlqmTYhQL-06_YI-1" source="4999PPlqmTYhQL-06_YI-7" target="4999PPlqmTYhQL-06_YI-8">
          <mxGeometry relative="1" as="geometry"/>
        </mxCell>
        <mxCell id="4999PPlqmTYhQL-06_YI-3" style="edgeStyle=orthogonalEdgeStyle;rounded=0;orthogonalLoop=1;jettySize=auto;html=1;exitX=0.5;exitY=1;exitDx=0;exitDy=0;fontSize=22;" edge="1" parent="4999PPlqmTYhQL-06_YI-1" source="4999PPlqmTYhQL-06_YI-7" target="4999PPlqmTYhQL-06_YI-9">
          <mxGeometry relative="1" as="geometry"/>
        </mxCell>
        <mxCell id="4999PPlqmTYhQL-06_YI-7" value="App Component" style="rounded=0;whiteSpace=wrap;html=1;fontSize=18;align=center;fillColor=#dae8fc;strokeColor=#6c8ebf;fontStyle=1" vertex="1" parent="4999PPlqmTYhQL-06_YI-1">
          <mxGeometry x="480" y="170" width="240" height="60" as="geometry"/>
        </mxCell>
        <mxCell id="4999PPlqmTYhQL-06_YI-8" value="CollectionsHome Component" style="rounded=0;whiteSpace=wrap;html=1;fontSize=18;align=center;fillColor=#dae8fc;strokeColor=#6c8ebf;fontStyle=1" vertex="1" parent="4999PPlqmTYhQL-06_YI-1">
          <mxGeometry x="600" y="300" width="170" height="60" as="geometry"/>
        </mxCell>
        <mxCell id="4999PPlqmTYhQL-06_YI-14" style="edgeStyle=orthogonalEdgeStyle;rounded=0;orthogonalLoop=1;jettySize=auto;html=1;exitX=0.5;exitY=1;exitDx=0;exitDy=0;fontSize=22;" edge="1" parent="4999PPlqmTYhQL-06_YI-1" source="4999PPlqmTYhQL-06_YI-9" target="4999PPlqmTYhQL-06_YI-11">
          <mxGeometry relative="1" as="geometry"/>
        </mxCell>
        <mxCell id="4999PPlqmTYhQL-06_YI-16" style="edgeStyle=orthogonalEdgeStyle;rounded=0;orthogonalLoop=1;jettySize=auto;html=1;exitX=0.5;exitY=1;exitDx=0;exitDy=0;fontSize=22;" edge="1" parent="4999PPlqmTYhQL-06_YI-1" source="4999PPlqmTYhQL-06_YI-9" target="4999PPlqmTYhQL-06_YI-10">
          <mxGeometry relative="1" as="geometry"/>
        </mxCell>
        <mxCell id="4999PPlqmTYhQL-06_YI-17" style="edgeStyle=orthogonalEdgeStyle;rounded=0;orthogonalLoop=1;jettySize=auto;html=1;exitX=0.5;exitY=1;exitDx=0;exitDy=0;fontSize=22;" edge="1" parent="4999PPlqmTYhQL-06_YI-1" source="4999PPlqmTYhQL-06_YI-9" target="4999PPlqmTYhQL-06_YI-12">
          <mxGeometry relative="1" as="geometry"/>
        </mxCell>
        <mxCell id="4999PPlqmTYhQL-06_YI-9" value="ElementsHome Component" style="rounded=0;whiteSpace=wrap;html=1;fontSize=18;align=center;fillColor=#dae8fc;strokeColor=#6c8ebf;fontStyle=1" vertex="1" parent="4999PPlqmTYhQL-06_YI-1">
          <mxGeometry x="420" y="300" width="170" height="60" as="geometry"/>
        </mxCell>
        <mxCell id="4999PPlqmTYhQL-06_YI-10" value="Biography Component" style="rounded=0;whiteSpace=wrap;html=1;fontSize=18;align=center;fillColor=#dae8fc;strokeColor=#6c8ebf;fontStyle=1" vertex="1" parent="4999PPlqmTYhQL-06_YI-1">
          <mxGeometry x="240" y="400" width="170" height="60" as="geometry"/>
        </mxCell>
        <mxCell id="4999PPlqmTYhQL-06_YI-11" value="Partners Component" style="rounded=0;whiteSpace=wrap;html=1;fontSize=18;align=center;fillColor=#dae8fc;strokeColor=#6c8ebf;fontStyle=1" vertex="1" parent="4999PPlqmTYhQL-06_YI-1">
          <mxGeometry x="420" y="400" width="170" height="60" as="geometry"/>
        </mxCell>
        <mxCell id="4999PPlqmTYhQL-06_YI-12" value="Companies Component" style="rounded=0;whiteSpace=wrap;html=1;fontSize=18;align=center;fillColor=#dae8fc;strokeColor=#6c8ebf;fontStyle=1" vertex="1" parent="4999PPlqmTYhQL-06_YI-1">
          <mxGeometry x="600" y="400" width="170" height="60" as="geometry"/>
        </mxCell>
        <mxCell id="4999PPlqmTYhQL-06_YI-21" style="edgeStyle=orthogonalEdgeStyle;rounded=0;orthogonalLoop=1;jettySize=auto;html=1;exitX=0.5;exitY=1;exitDx=0;exitDy=0;entryX=0.5;entryY=0;entryDx=0;entryDy=0;fontSize=12;" edge="1" parent="4999PPlqmTYhQL-06_YI-1" source="4999PPlqmTYhQL-06_YI-18" target="4999PPlqmTYhQL-06_YI-20">
          <mxGeometry relative="1" as="geometry"/>
        </mxCell>
        <mxCell id="4999PPlqmTYhQL-06_YI-18" value="Add additional routes to the parent components &#39;children&#39; property in the RoutingModule" style="rounded=0;whiteSpace=wrap;html=1;fontSize=12;align=center;" vertex="1" parent="4999PPlqmTYhQL-06_YI-1">
          <mxGeometry x="60" y="180" width="290" height="40" as="geometry"/>
        </mxCell>
        <mxCell id="4999PPlqmTYhQL-06_YI-19" value="To Show Child Components" style="text;html=1;strokeColor=none;fillColor=none;align=center;verticalAlign=middle;whiteSpace=wrap;rounded=0;fontSize=16;fontStyle=1" vertex="1" parent="4999PPlqmTYhQL-06_YI-1">
          <mxGeometry x="63.75" y="160" width="282.5" height="20" as="geometry"/>
        </mxCell>
        <mxCell id="4999PPlqmTYhQL-06_YI-20" value="Place another &#39;router-outlet&#39; element in the parent component&#39;s template" style="rounded=0;whiteSpace=wrap;html=1;fontSize=12;align=center;" vertex="1" parent="4999PPlqmTYhQL-06_YI-1">
          <mxGeometry x="60" y="240" width="290" height="40" as="geometry"/>
        </mxCell>
      </root>
    </mxGraphModel>
  </diagram>
</mxfile>
